<?xml version="1.0" encoding="utf-8"?>
<!-- Generator: Adobe Illustrator 21.0.0, SVG Export Plug-In . SVG Version: 6.00 Build 0)  -->
<svg version="1.1" id="图层_1" xmlns="http://www.w3.org/2000/svg" xmlns:xlink="http://www.w3.org/1999/xlink" x="0px" y="0px"
	 viewBox="0 0 692 141.7" style="enable-background:new 0 0 692 141.7;" xml:space="preserve">
<style type="text/css">
	.st0{fill:#1159A8;}
	.st1{fill:#F18C1E;}
	.st2{fill:url(#SVGID_1_);}
	.st3{fill:url(#SVGID_2_);}
	.st4{fill:url(#SVGID_3_);}
	.st5{fill:none;}
	.st6{fill:url(#SVGID_4_);}
	.st7{fill:url(#SVGID_5_);}
	.st8{fill:url(#SVGID_6_);}
</style>
<path class="st0" d="M155.1,77l10.5-49.5h37.7c5.2,0,9.5,0.3,13.1,0.9c3.6,0.6,6.8,1.9,9.6,3.8c2.9,2,4.9,4.5,6.2,7.6
	c1.3,3.1,1.4,7,0.4,11.7c-1.4,6.4-4,11.7-7.8,15.8c-3.9,4.1-9,7.1-15.1,9.8l21.3,37.7h-27.5L184.3,77h-7l-7.8,37.7h-14.3
	 M208.9,54.2c0.5-2.2,0.4-4.1-0.1-5.6c-0.6-1.6-1.9-2.8-3.8-3.7c-1.4-0.6-3.1-1-5.1-1.1c-2-0.1-4.4-0.2-7-0.2h-8.1l-5,23.5h6.9
	c3.6,0,6.6-0.2,9.1-0.5c2.5-0.4,4.7-1.2,6.6-2.4c1.8-1.2,3.2-2.5,4.3-4C207.6,58.6,208.4,56.6,208.9,54.2z"/>
<path class="st0" d="M155.2,114.7l8-37.7l-5.3-12.8c0,0-2.2,5.1-2.5,9.7c-1,12.5-5.3,40.9-33.6,40.9"/>
<path class="st0" d="M148.4,88c-0.9,4.2-2.5,8-5,11.3c-2.4,3.3-5.3,6.1-8.8,8.3c-4,2.6-8.2,4.4-12.5,5.5c-4.4,1.1-9.7,1.6-16,1.6H68
	l18.5-87.2h33.9c7,0,12.1,0.2,15.3,0.7c3.2,0.5,6.2,1.5,9,3.1c3,1.7,5,3.9,6,6.8c1,2.8,1.1,6.1,0.4,9.7c-0.9,4.2-2.8,7.9-5.7,11.2
	c-1,1.1-2,2.1-3.1,3c-2.3,1.8-4.9,3.4-7.9,4.6l-0.1,0.5c5.5,1.1,9.5,3.5,12.1,7C148.9,77.5,149.6,82.2,148.4,88z M127.2,52.1
	c0.3-1.4,0.3-2.9-0.2-4.3c-0.4-1.4-1.5-2.5-3.2-3.2c-1.5-0.6-3.5-1-5.9-1c-2.4-0.1-5.9-0.1-10.3-0.1h-2.1l-3.9,18.5h3.5
	c3.6,0,6.6-0.1,9.1-0.2c2.5-0.1,4.6-0.5,6.2-1.2c2.2-0.9,3.8-2.1,4.7-3.5C126.1,55.7,126.8,54,127.2,52.1z M125.1,87.6
	c0.6-2.8,0.5-4.9-0.2-6.4c-0.8-1.5-2.3-2.6-4.8-3.4c-1.6-0.5-4-0.8-7.1-0.8c-3.1,0-6.3-0.1-9.6-0.1h-4.9l-4.6,21.7h1.6
	c6.3,0,10.8,0,13.6-0.1c2.7,0,5.4-0.5,7.9-1.5c2.5-1,4.4-2.3,5.6-3.9C123.8,91.6,124.6,89.7,125.1,87.6z"/>
<path class="st0" d="M135.3,61.8c0,0,10,13.4,16-15.2"/>
<polygon class="st1" points="247.9,77.8 57.4,77.8 57.4,60.3 251.1,60.3 "/>
<polyline class="st0" points="97.6,80.8 102.3,59 79.9,59 75.4,80.2 "/>
<g>
	
		<linearGradient id="SVGID_1_" gradientUnits="userSpaceOnUse" x1="-1757.0442" y1="-1776.0332" x2="-1562.8992" y2="-1776.0332" gradientTransform="matrix(1 0 0 -1 2020.9902 -1711.8652)">
		<stop  offset="0" style="stop-color:#F18C1D"/>
		<stop  offset="1" style="stop-color:#F18C1D;stop-opacity:0"/>
	</linearGradient>
	<polygon class="st2" points="263.9,62.7 458.1,64.2 263.9,65.7 	"/>
</g>
<g>
	
		<linearGradient id="SVGID_2_" gradientUnits="userSpaceOnUse" x1="-1760.7443" y1="-1782.3662" x2="-1598.8362" y2="-1782.3662" gradientTransform="matrix(1 0 0 -1 2020.9902 -1711.8652)">
		<stop  offset="0" style="stop-color:#F18C1D"/>
		<stop  offset="1" style="stop-color:#F18C1D;stop-opacity:0"/>
	</linearGradient>
	<polygon class="st3" points="260.2,69.5 422.2,70.5 260.2,71.5 	"/>
</g>
<g>
	
		<linearGradient id="SVGID_3_" gradientUnits="userSpaceOnUse" x1="-1758.9722" y1="-1779.3662" x2="-1568.9592" y2="-1779.3662" gradientTransform="matrix(1 0 0 -1 2020.9902 -1711.8652)">
		<stop  offset="0" style="stop-color:#F18C1D"/>
		<stop  offset="1" style="stop-color:#F18C1D;stop-opacity:0"/>
	</linearGradient>
	<polygon class="st4" points="262,66.5 452,67.5 262,68.5 	"/>
</g>
<g>
	<path class="st5" d="M405.8,63.9"/>
</g>
<g>
	<path class="st5" d="M258.5,63.9"/>
</g>
<g>
	
		<linearGradient id="SVGID_4_" gradientUnits="userSpaceOnUse" x1="-1757.6522" y1="-1773.0332" x2="-1637.9012" y2="-1773.0332" gradientTransform="matrix(1 0 0 -1 2020.9902 -1711.8652)">
		<stop  offset="0" style="stop-color:#F18C1D"/>
		<stop  offset="1" style="stop-color:#F18C1D;stop-opacity:0"/>
	</linearGradient>
	<polygon class="st6" points="263.3,60.2 383.1,61.2 263.3,62.2 	"/>
</g>
<g>
	
		<linearGradient id="SVGID_5_" gradientUnits="userSpaceOnUse" x1="-1760.8643" y1="-1785.3662" x2="-1600.9592" y2="-1785.3662" gradientTransform="matrix(1 0 0 -1 2020.9902 -1711.8652)">
		<stop  offset="0" style="stop-color:#F18C1D"/>
		<stop  offset="1" style="stop-color:#F18C1D;stop-opacity:0"/>
	</linearGradient>
	<polygon class="st7" points="260.1,72.5 420,73.5 260.1,74.5 	"/>
</g>
<g>
	
		<linearGradient id="SVGID_6_" gradientUnits="userSpaceOnUse" x1="-1765.0522" y1="-1788.9492" x2="-1615.1942" y2="-1788.9492" gradientTransform="matrix(1 0 0 -1 2020.9902 -1711.8652)">
		<stop  offset="0" style="stop-color:#F18C1D"/>
		<stop  offset="1" style="stop-color:#F18C1D;stop-opacity:0"/>
	</linearGradient>
	<polygon class="st8" points="255.9,76.1 405.8,77.1 255.9,78.1 	"/>
</g>
<path class="st0" d="M295.9,44.3h-27.2l-15,70.4h-22.5l15-70.4h-8.4l4.4-16.9h57.3L295.9,44.3z"/>
<path class="st0" d="M245.4,27.5l-6.6,16.9c-1-6.9-4.1-15.1-14.9-16.9"/>
<path class="st0" d="M143.3,27.5c0,0,12,0.5,12.4,16h9l3.4-16"/>
<path d="M148,77"/>
<polyline class="st0" points="154.5,80.8 159.2,57.8 181.6,57.8 176.5,80.8 "/>
<polyline class="st1" points="38.6,69.2 56.3,52.7 67.1,69.4 56.3,85.8 "/>
<path class="st5" d="M43.3,95"/>
<path class="st5" d="M43.3,51.9"/>
<path class="st0" d="M225.4,27.5c0,0,11,1.8,12.4,16.9l6.4-16.9"/>
<g>
	<path class="st1" d="M272.7,114.4l2.2-10.5l-6.1-14.5h5.9l3.8,9.9l7.9-9.9h5.8L279.9,104l-2.2,10.5H272.7z"/>
	<path class="st1" d="M288.1,114.4l3.8-18.1h4.8l-3.8,18.1H288.1z M292.4,93.9l0.9-4.4h4.8l-0.9,4.4H292.4z"/>
	<path class="st1" d="M316.3,101.7l-4.9,0.9c0-0.9-0.2-1.7-0.6-2.1c-0.5-0.5-1.1-0.7-2-0.7c-1.2,0-2.2,0.4-3.1,1.2
		c-0.9,0.8-1.5,2.2-1.9,4.1c-0.5,2.2-0.4,3.7,0.1,4.6c0.5,0.9,1.4,1.3,2.6,1.3c0.9,0,1.7-0.3,2.4-0.8c0.7-0.5,1.3-1.4,1.8-2.7
		l4.5,0.8c-0.9,2.2-2.2,3.8-3.9,4.9c-1.6,1.1-3.6,1.7-5.9,1.7c-2.6,0-4.6-0.8-5.8-2.5c-1.2-1.7-1.5-4-0.9-6.9c0.6-3,1.9-5.3,3.9-7
		c1.9-1.7,4.2-2.5,6.9-2.5c2.2,0,3.9,0.5,5,1.4C315.5,98.3,316.1,99.7,316.3,101.7z"/>
	<path class="st1" d="M327.3,89.4l-2,9.2c1.9-1.8,4-2.7,6.1-2.7c1.1,0,2.1,0.2,2.9,0.6s1.4,0.9,1.7,1.6c0.3,0.6,0.5,1.3,0.5,2.1
		c0,0.8-0.2,2-0.5,3.6l-2.3,10.6h-4.8l2-9.6c0.4-1.9,0.6-3.1,0.5-3.6c-0.1-0.5-0.3-0.9-0.7-1.2c-0.4-0.3-0.9-0.5-1.6-0.5
		c-0.8,0-1.5,0.2-2.3,0.6c-0.7,0.4-1.3,1-1.7,1.7c-0.5,0.8-0.8,1.9-1.2,3.5l-1.9,9.1h-4.8l5.3-25H327.3z"/>
	<path class="st1" d="M344.8,101.9l-4.2-0.8c0.9-1.8,2-3,3.4-3.9c1.4-0.8,3.2-1.3,5.6-1.3c2.1,0,3.7,0.3,4.6,0.8
		c0.9,0.5,1.5,1.1,1.8,1.9c0.3,0.8,0.2,2.2-0.3,4.3l-1.2,5.6c-0.3,1.6-0.5,2.8-0.5,3.5c0,0.8,0.1,1.6,0.3,2.4h-4.7
		c-0.1-0.3-0.1-0.8-0.2-1.4c0-0.3,0-0.5-0.1-0.6c-1,0.8-2,1.4-3,1.8c-1,0.4-2.1,0.6-3.1,0.6c-1.9,0-3.2-0.5-4.1-1.5
		c-0.9-1-1.1-2.3-0.8-3.8c0.2-1,0.7-1.9,1.3-2.7c0.7-0.8,1.5-1.4,2.4-1.8c1-0.4,2.3-0.8,4-1.1c2.3-0.4,4-0.8,4.9-1.2l0.1-0.5
		c0.2-0.9,0.1-1.6-0.3-2c-0.4-0.4-1.2-0.6-2.5-0.6c-0.9,0-1.6,0.2-2.1,0.5C345.8,100.4,345.2,101,344.8,101.9z M350.4,105.7
		c-0.7,0.2-1.7,0.4-3.1,0.7c-1.4,0.3-2.3,0.6-2.8,0.8c-0.7,0.4-1.2,1-1.3,1.7c-0.1,0.7,0,1.3,0.4,1.7c0.4,0.5,1,0.7,1.8,0.7
		c0.9,0,1.7-0.3,2.7-0.9c0.7-0.4,1.2-1,1.5-1.6c0.2-0.4,0.4-1.2,0.7-2.3L350.4,105.7z"/>
	<path class="st1" d="M374.4,114.4h-4.8l2-9.2c0.4-2,0.6-3.2,0.5-3.8c-0.1-0.6-0.3-1-0.7-1.3c-0.4-0.3-0.9-0.5-1.6-0.5
		c-0.8,0-1.6,0.2-2.4,0.7c-0.8,0.5-1.3,1.1-1.7,1.8c-0.4,0.8-0.8,2.1-1.3,4.2l-1.7,8.2h-4.8l3.8-18.1h4.5l-0.6,2.7
		c2-2,4.2-3.1,6.6-3.1c1.1,0,2,0.2,2.8,0.6c0.8,0.4,1.4,0.9,1.7,1.5c0.3,0.6,0.5,1.3,0.5,2c0,0.8-0.1,1.8-0.4,3.2L374.4,114.4z"/>
	<path class="st1" d="M378.6,115.6l5.3,0.7c0,0.6,0.1,1.1,0.4,1.3c0.4,0.3,1.1,0.5,2,0.5c1.3,0,2.2-0.2,2.9-0.6
		c0.5-0.2,0.9-0.7,1.2-1.2c0.2-0.4,0.5-1.1,0.7-2.2l0.6-2.6c-1.8,2-3.9,2.9-6,2.9c-2.4,0-4.1-1-5.1-3.1c-0.8-1.6-0.9-3.6-0.4-6.1
		c0.6-3,1.9-5.4,3.7-7c1.8-1.6,3.8-2.4,6-2.4c2.2,0,3.9,1,4.9,3l0.5-2.5h4.5l-3.5,16.3c-0.5,2.1-1,3.7-1.5,4.8
		c-0.6,1.1-1.2,1.9-2,2.5c-0.8,0.6-1.7,1.1-2.8,1.4c-1.1,0.3-2.5,0.5-4.1,0.5c-3.1,0-5.1-0.5-6.2-1.6c-1.1-1.1-1.4-2.4-1.1-4
		C378.5,116.1,378.5,115.9,378.6,115.6z M385.1,105c-0.4,1.9-0.3,3.3,0.2,4.2c0.6,0.9,1.4,1.3,2.5,1.3c1.2,0,2.3-0.5,3.3-1.4
		c1-0.9,1.7-2.3,2.1-4.1c0.4-1.9,0.3-3.3-0.3-4.2c-0.6-0.9-1.5-1.4-2.6-1.4c-1.1,0-2.2,0.4-3.1,1.3
		C386.2,101.8,385.5,103.2,385.1,105z"/>
	<path class="st1" d="M416,114.4l4.4-20.8H413l0.9-4.2h19.9l-0.9,4.2h-7.4l-4.4,20.8H416z"/>
	<path class="st1" d="M434.3,114.4h-4.8l3.8-18.1h4.5l-0.5,2.6c1-1.2,1.9-2,2.6-2.4c0.7-0.4,1.4-0.6,2.2-0.6c1.1,0,2.1,0.3,3,0.9
		l-2.4,4.2c-0.7-0.5-1.4-0.8-2.1-0.8c-0.7,0-1.3,0.2-1.8,0.6c-0.5,0.4-1.1,1-1.5,2c-0.5,1-1,3-1.7,6.1L434.3,114.4z"/>
	<path class="st1" d="M449.6,101.9l-4.2-0.8c0.9-1.8,2-3,3.4-3.9c1.4-0.8,3.2-1.3,5.6-1.3c2.1,0,3.7,0.3,4.6,0.8
		c0.9,0.5,1.5,1.1,1.8,1.9c0.3,0.8,0.2,2.2-0.3,4.3l-1.2,5.6c-0.3,1.6-0.5,2.8-0.5,3.5c0,0.8,0.1,1.6,0.3,2.4h-4.7
		c-0.1-0.3-0.1-0.8-0.2-1.4c0-0.3,0-0.5-0.1-0.6c-1,0.8-2,1.4-3,1.8c-1,0.4-2.1,0.6-3.1,0.6c-1.9,0-3.2-0.5-4.1-1.5
		c-0.9-1-1.1-2.3-0.8-3.8c0.2-1,0.7-1.9,1.3-2.7c0.7-0.8,1.5-1.4,2.4-1.8c1-0.4,2.3-0.8,4-1.1c2.3-0.4,4-0.8,4.9-1.2l0.1-0.5
		c0.2-0.9,0.1-1.6-0.3-2c-0.4-0.4-1.2-0.6-2.5-0.6c-0.9,0-1.6,0.2-2.1,0.5S450,101,449.6,101.9z M455.2,105.7
		c-0.7,0.2-1.7,0.4-3.1,0.7c-1.4,0.3-2.3,0.6-2.8,0.8c-0.7,0.4-1.2,1-1.3,1.7c-0.1,0.7,0,1.3,0.4,1.7c0.4,0.5,1,0.7,1.8,0.7
		c0.9,0,1.8-0.3,2.7-0.9c0.7-0.4,1.2-1,1.5-1.6c0.2-0.4,0.4-1.2,0.7-2.3L455.2,105.7z"/>
	<path class="st1" d="M479.2,114.4h-4.8l2-9.2c0.4-2,0.6-3.2,0.5-3.8c-0.1-0.6-0.3-1-0.7-1.3c-0.4-0.3-0.9-0.5-1.6-0.5
		c-0.8,0-1.6,0.2-2.4,0.7c-0.8,0.5-1.3,1.1-1.7,1.8c-0.4,0.8-0.8,2.1-1.3,4.2l-1.7,8.2h-4.8l3.8-18.1h4.5l-0.6,2.7
		c2-2,4.2-3.1,6.6-3.1c1.1,0,2,0.2,2.8,0.6c0.8,0.4,1.4,0.9,1.7,1.5c0.3,0.6,0.5,1.3,0.5,2c0,0.8-0.1,1.8-0.4,3.2L479.2,114.4z"/>
	<path class="st1" d="M483.5,109.3l5-0.7c0,0.9,0.3,1.6,0.8,2.1c0.5,0.5,1.3,0.7,2.5,0.7c1.2,0,2.2-0.2,2.9-0.7
		c0.5-0.3,0.8-0.7,0.9-1.3c0.1-0.4,0-0.7-0.1-0.9c-0.2-0.2-0.7-0.4-1.5-0.6c-3.7-0.9-6-1.6-6.9-2.3c-1.2-1-1.7-2.3-1.3-4.1
		c0.3-1.6,1.2-2.9,2.7-4c1.5-1.1,3.5-1.6,6.1-1.6c2.5,0,4.2,0.4,5.3,1.2c1,0.8,1.6,2,1.7,3.6l-4.7,0.8c0-0.7-0.3-1.2-0.8-1.6
		c-0.5-0.4-1.2-0.6-2.2-0.6c-1.3,0-2.2,0.2-2.8,0.5c-0.4,0.3-0.7,0.6-0.8,1c-0.1,0.3,0,0.6,0.3,0.9c0.4,0.3,1.8,0.8,4.2,1.3
		c2.4,0.6,4.1,1.3,4.9,2.1c0.8,0.9,1.1,2,0.7,3.6c-0.4,1.7-1.3,3.1-3,4.3c-1.6,1.2-3.8,1.8-6.5,1.8c-2.5,0-4.3-0.5-5.5-1.5
		C484.2,112.4,483.6,111,483.5,109.3z"/>
	<path class="st1" d="M507.2,96.3h4.5l-0.6,2.7c0.8-0.9,1.7-1.6,2.8-2.2c1.1-0.6,2.3-0.9,3.5-0.9c2.1,0,3.7,0.8,4.8,2.5
		s1.4,3.9,0.7,6.9c-0.6,3-1.9,5.4-3.7,7.1c-1.8,1.7-3.8,2.5-5.9,2.5c-1,0-1.9-0.2-2.6-0.6c-0.7-0.4-1.4-1.1-2.1-2l-1.9,9.1h-4.8
		L507.2,96.3z M510.1,105.1c-0.4,2-0.3,3.5,0.3,4.5c0.6,1,1.5,1.5,2.6,1.5c1.1,0,2.1-0.4,3.1-1.3c0.9-0.9,1.6-2.4,2-4.4
		c0.4-1.9,0.3-3.3-0.2-4.2c-0.6-0.9-1.4-1.4-2.5-1.4c-1.2,0-2.2,0.5-3.2,1.4C511.1,102,510.5,103.3,510.1,105.1z"/>
	<path class="st1" d="M525.7,105.1c0.3-1.6,1.1-3.1,2.2-4.6c1.1-1.5,2.5-2.6,4.1-3.4c1.6-0.8,3.3-1.2,5.1-1.2c2.7,0,4.8,0.9,6.2,2.7
		s1.8,4,1.2,6.7c-0.6,2.7-1.9,5-4.1,6.8c-2.2,1.8-4.6,2.7-7.3,2.7c-1.7,0-3.2-0.4-4.5-1.1c-1.3-0.8-2.3-1.9-2.7-3.3
		C525.3,109,525.3,107.2,525.7,105.1z M530.6,105.4c-0.4,1.8-0.2,3.2,0.4,4.1c0.6,1,1.6,1.4,2.9,1.4c1.3,0,2.4-0.5,3.5-1.4
		c1-1,1.8-2.3,2.2-4.2c0.4-1.8,0.2-3.1-0.4-4.1c-0.6-1-1.6-1.4-2.8-1.4c-1.3,0-2.4,0.5-3.5,1.4C531.7,102.2,530.9,103.6,530.6,105.4
		z"/>
	<path class="st1" d="M550.8,114.4H546l3.8-18.1h4.5l-0.5,2.6c1-1.2,1.9-2,2.6-2.4c0.7-0.4,1.4-0.6,2.2-0.6c1.1,0,2.1,0.3,3,0.9
		l-2.4,4.2c-0.7-0.5-1.4-0.8-2.1-0.8c-0.7,0-1.3,0.2-1.8,0.6c-0.5,0.4-1.1,1-1.5,2c-0.5,1-1,3-1.7,6.1L550.8,114.4z"/>
	<path class="st1" d="M571.9,96.3l-0.8,3.8h-3.3l-1.6,7.3c-0.3,1.5-0.5,2.3-0.5,2.6c0,0.2,0.1,0.4,0.3,0.6c0.2,0.2,0.4,0.2,0.8,0.2
		c0.4,0,1.1-0.2,2-0.5l-0.4,3.7c-1.2,0.5-2.5,0.7-3.9,0.7c-0.9,0-1.6-0.1-2.2-0.4s-1.1-0.7-1.3-1.1c-0.2-0.5-0.3-1.1-0.3-1.9
		c0-0.6,0.2-1.7,0.6-3.4l1.7-7.9h-2.2l0.8-3.8h2.2l0.8-3.6l5.4-2.8l-1.4,6.4H571.9z"/>
	<path class="st1" d="M581.2,114.4l5.3-25h17.1l-0.9,4.2h-12.1l-1.3,5.9h10.4l-0.9,4.2h-10.4l-2.3,10.6H581.2z"/>
	<path class="st1" d="M608.7,101.9l-4.2-0.8c0.9-1.8,2-3,3.4-3.9c1.4-0.8,3.2-1.3,5.6-1.3c2.1,0,3.7,0.3,4.6,0.8
		c0.9,0.5,1.5,1.1,1.8,1.9c0.3,0.8,0.2,2.2-0.3,4.3l-1.2,5.6c-0.3,1.6-0.5,2.8-0.5,3.5c0,0.8,0.1,1.6,0.3,2.4h-4.7
		c-0.1-0.3-0.1-0.8-0.2-1.4c0-0.3,0-0.5-0.1-0.6c-1,0.8-2,1.4-3,1.8c-1,0.4-2.1,0.6-3.1,0.6c-1.9,0-3.2-0.5-4.1-1.5
		c-0.9-1-1.1-2.3-0.8-3.8c0.2-1,0.7-1.9,1.3-2.7c0.7-0.8,1.5-1.4,2.4-1.8c1-0.4,2.3-0.8,4-1.1c2.3-0.4,4-0.8,4.9-1.2l0.1-0.5
		c0.2-0.9,0.1-1.6-0.3-2c-0.4-0.4-1.2-0.6-2.5-0.6c-0.9,0-1.6,0.2-2.1,0.5C609.7,100.4,609.2,101,608.7,101.9z M614.3,105.7
		c-0.7,0.2-1.7,0.4-3.1,0.7c-1.4,0.3-2.3,0.6-2.8,0.8c-0.7,0.4-1.2,1-1.3,1.7c-0.1,0.7,0,1.3,0.4,1.7c0.4,0.5,1,0.7,1.8,0.7
		c0.9,0,1.8-0.3,2.7-0.9c0.7-0.4,1.2-1,1.5-1.6c0.2-0.4,0.4-1.2,0.7-2.3L614.3,105.7z"/>
	<path class="st1" d="M638.3,114.4h-4.8l2-9.2c0.4-2,0.6-3.2,0.5-3.8c-0.1-0.6-0.3-1-0.7-1.3c-0.4-0.3-0.9-0.5-1.6-0.5
		c-0.8,0-1.6,0.2-2.4,0.7c-0.8,0.5-1.3,1.1-1.7,1.8c-0.4,0.8-0.8,2.1-1.3,4.2l-1.7,8.2h-4.8l3.8-18.1h4.5l-0.6,2.7
		c2-2,4.2-3.1,6.6-3.1c1.1,0,2,0.2,2.8,0.6c0.8,0.4,1.4,0.9,1.7,1.5c0.3,0.6,0.5,1.3,0.5,2c0,0.8-0.1,1.8-0.4,3.2L638.3,114.4z"/>
	<path class="st1" d="M642.6,109.3l5-0.7c0,0.9,0.3,1.6,0.8,2.1c0.5,0.5,1.3,0.7,2.5,0.7c1.2,0,2.2-0.2,2.9-0.7
		c0.5-0.3,0.8-0.7,0.9-1.3c0.1-0.4,0-0.7-0.1-0.9c-0.2-0.2-0.7-0.4-1.5-0.6c-3.7-0.9-6-1.6-6.9-2.3c-1.2-1-1.7-2.3-1.3-4.1
		c0.3-1.6,1.2-2.9,2.7-4c1.5-1.1,3.5-1.6,6.1-1.6c2.5,0,4.2,0.4,5.3,1.2c1,0.8,1.6,2,1.7,3.6l-4.7,0.8c0-0.7-0.3-1.2-0.8-1.6
		c-0.5-0.4-1.2-0.6-2.2-0.6c-1.3,0-2.2,0.2-2.8,0.5c-0.4,0.3-0.7,0.6-0.8,1c-0.1,0.3,0,0.6,0.3,0.9c0.4,0.3,1.8,0.8,4.2,1.3
		c2.4,0.6,4.1,1.3,4.9,2.1c0.8,0.9,1.1,2,0.7,3.6c-0.4,1.7-1.3,3.1-3,4.3c-1.6,1.2-3.8,1.8-6.5,1.8c-2.5,0-4.3-0.5-5.5-1.5
		C643.3,112.4,642.7,111,642.6,109.3z"/>
</g>
</svg>
