<?xml version="1.0" encoding="utf-8"?>
<!-- Generator: Adobe Illustrator 21.0.0, SVG Export Plug-In . SVG Version: 6.00 Build 0)  -->
<svg version="1.1" id="图层_1" xmlns="http://www.w3.org/2000/svg" xmlns:xlink="http://www.w3.org/1999/xlink" x="0px" y="0px"
	 viewBox="0 0 261.5 57.2" style="enable-background:new 0 0 261.5 57.2;" xml:space="preserve">
<style type="text/css">
	.st0{display:none;}
	.st1{display:inline;fill:#FDC233;}
	.st2{fill:none;}
	.st3{fill:#3B5998;}
	.st4{fill:#00B026;}
</style>
<g id="non_printing" class="st0">
	<rect y="-30.5" class="st1" width="261.5" height="95.1"/>
</g>
<g id="common_1_">
	<g id="Layer_3">
	</g>
	<g id="图层_3">
	</g>
	<g>
		<rect x="71.8" y="6.5" class="st2" width="192" height="26.5"/>
		<path class="st3" d="M85.9,20.2h-7.5l-1.6,8.2h-4.7L76.2,8h13.5l-0.7,3.7h-8.8l-1,4.9h7.5L85.9,20.2z"/>
		<path class="st3" d="M97.6,24.4H92l-1.8,4h-4.7L95.6,8h5l2,20.4h-4.7L97.6,24.4z M93.7,20.8h3.7L96.9,14l-0.1,0L93.7,20.8z"/>
		<path class="st3" d="M110.2,20.6l-1.6,7.8H104L108,8h7.4c2.1,0,3.7,0.6,4.8,1.7s1.5,2.6,1.2,4.5c-0.2,1.1-0.7,2.1-1.3,2.8
			c-0.7,0.7-1.6,1.3-2.7,1.8c1,0.4,1.8,1,2.1,1.8c0.4,0.8,0.5,1.8,0.2,3l-0.3,1.3c-0.1,0.6-0.2,1.2-0.1,1.8c0,0.7,0.2,1.2,0.5,1.4
			l-0.1,0.3H115c-0.3-0.3-0.4-0.8-0.4-1.5c0-0.7,0.1-1.4,0.3-2.1l0.3-1.2c0.2-1,0.1-1.8-0.2-2.3c-0.3-0.5-0.9-0.7-1.8-0.7
			L110.2,20.6L110.2,20.6z M111,16.9h2.8c0.7,0,1.4-0.2,1.9-0.7c0.6-0.4,0.9-1.1,1.1-1.9c0.2-0.9,0.1-1.6-0.3-2.1s-0.9-0.7-1.7-0.7
			H112L111,16.9z"/>
		<path class="st3" d="M142.3,19.7H135l-1,5.1h8.6l-0.7,3.6h-13.3L132.7,8H146l-0.7,3.7h-8.7l-0.9,4.4h7.3L142.3,19.7z"/>
		<path class="st3" d="M154.8,24.4h-5.6l-1.8,4h-4.7L152.7,8h5l2,20.4H155L154.8,24.4z M150.8,20.8h3.7l-0.4-6.8l-0.1,0L150.8,20.8z
			"/>
		<path class="st3" d="M172.2,23.3c0.2-0.9,0-1.5-0.4-1.9c-0.4-0.4-1.2-0.8-2.4-1.4c-2.2-0.8-3.9-1.7-5-2.8
			c-1.1-1.1-1.4-2.5-1.1-4.1c0.3-1.7,1.3-3.1,2.7-4s3.2-1.4,5.3-1.4c2.1,0,3.8,0.6,5,1.7s1.6,2.6,1.2,4.6l0,0.1h-4.6
			c0.2-0.8,0-1.5-0.4-2c-0.4-0.5-1.1-0.7-1.9-0.7c-0.6,0-1.1,0.2-1.6,0.5c-0.5,0.3-0.8,0.8-0.9,1.2c-0.2,0.8,0,1.3,0.4,1.7
			c0.4,0.4,1.4,0.9,3,1.5c2,0.7,3.5,1.6,4.4,2.7s1.2,2.5,0.9,4.3c-0.4,1.8-1.3,3.1-2.7,4.1c-1.4,0.9-3.2,1.4-5.3,1.4
			c-2.1,0-3.8-0.5-5.2-1.5c-1.4-1-1.9-2.6-1.4-4.7l0-0.1h4.6c-0.2,1,0,1.7,0.6,2.1s1.3,0.6,2.3,0.6c0.6,0,1.1-0.2,1.6-0.5
			S172.1,23.8,172.2,23.3z"/>
		<path class="st3" d="M194.5,11.6h-4.9l-3.4,16.8h-4.7l3.4-16.8h-4.8l0.7-3.7h14.4L194.5,11.6z"/>
		<path class="st3" d="M199.8,28.4L203.9,8h6.6c2.2,0,4,0.5,5.2,1.4c1.2,1,1.6,2.4,1.3,4.2c-0.2,1-0.6,1.9-1.2,2.7s-1.3,1.3-2.3,1.7
			c1.1,0.3,1.8,0.8,2.1,1.6c0.4,0.8,0.4,1.8,0.2,2.8c-0.4,2.1-1.4,3.7-2.8,4.6c-1.4,1-3.3,1.4-5.7,1.4L199.8,28.4L199.8,28.4z
			 M206.2,19.6l-1,5.1h2.9c0.8,0,1.5-0.2,2.1-0.6s0.9-1,1.1-1.8c0.2-0.9,0.1-1.6-0.1-2.1s-0.8-0.6-1.7-0.6H206.2z M206.9,16.5h2
			c0.9,0,1.6-0.2,2.2-0.6c0.6-0.4,1-1,1.1-1.7c0.2-0.9,0.1-1.6-0.3-1.9c-0.4-0.4-1.1-0.6-2.1-0.6h-1.9L206.9,16.5z"/>
		<path class="st3" d="M223.4,20.6l-1.6,7.8h-4.7L221.3,8h7.4c2.1,0,3.7,0.6,4.8,1.7s1.5,2.6,1.2,4.5c-0.2,1.1-0.7,2.1-1.3,2.8
			c-0.7,0.7-1.6,1.3-2.7,1.8c1,0.4,1.8,1,2.1,1.8c0.4,0.8,0.5,1.8,0.2,3l-0.3,1.3c-0.1,0.6-0.2,1.2-0.1,1.8c0,0.7,0.2,1.2,0.5,1.4
			l-0.1,0.3h-4.8c-0.3-0.3-0.4-0.8-0.4-1.5c0-0.7,0.1-1.4,0.3-2.1l0.3-1.2c0.2-1,0.1-1.8-0.2-2.3c-0.3-0.5-1-0.7-1.8-0.7L223.4,20.6
			L223.4,20.6z M224.2,16.9h2.8c0.7,0,1.4-0.2,1.9-0.7c0.6-0.4,0.9-1.1,1.1-1.9c0.2-0.9,0.1-1.6-0.3-2.1s-0.9-0.7-1.7-0.7h-2.7
			L224.2,16.9z"/>
		<path class="st3" d="M250.9,11.6h-4.9l-3.4,16.8H238l3.4-16.8h-4.8l0.7-3.7h14.4L250.9,11.6z"/>
	</g>
	<rect x="2.6" y="13.6" class="st4" width="64.5" height="9.3"/>
	<rect x="46.9" y="6.8" class="st3" width="20.2" height="5.2"/>
	<rect x="24.7" y="6.8" class="st3" width="20.2" height="5.2"/>
	<rect x="35.7" class="st3" width="20.2" height="5.2"/>
	<rect x="24.7" y="24.5" class="st3" width="20.2" height="5.2"/>
	<rect x="2.6" y="24.5" class="st3" width="20.2" height="5.2"/>
	<rect x="13.5" y="31.3" class="st3" width="20.2" height="5.2"/>
</g>
<g id="english">
	<g>
		<rect x="70.8" y="40.6" class="st2" width="200.8" height="16.6"/>
		<path class="st3" d="M71.4,50.5l1.8-9.2H76c0.8,0,1.5,0.2,1.9,0.6c0.5,0.4,0.6,1,0.4,1.9c-0.1,0.4-0.3,0.8-0.6,1.1
			s-0.7,0.5-1.1,0.7c0.5,0.1,0.8,0.4,1.1,0.8c0.2,0.4,0.3,0.9,0.1,1.5c-0.2,0.9-0.6,1.6-1.1,2s-1.3,0.6-2.2,0.6L71.4,50.5L71.4,50.5
			z M73.4,46.2l-0.7,3.3h2c0.5,0,0.9-0.1,1.3-0.4c0.4-0.3,0.6-0.7,0.7-1.2c0.1-0.6,0.1-1-0.1-1.3c-0.2-0.3-0.5-0.4-1-0.4L73.4,46.2
			L73.4,46.2z M73.6,45.2h1.9c0.4,0,0.7-0.1,1.1-0.4c0.3-0.3,0.5-0.6,0.6-1.1c0.1-0.5,0-0.9-0.2-1.1c-0.2-0.2-0.6-0.3-1.2-0.3h-1.6
			L73.6,45.2z"/>
		<path class="st3" d="M81.2,46.5l-0.8,4h-1.2l1.8-9.2h3.1c0.9,0,1.5,0.2,2,0.7c0.4,0.5,0.6,1.1,0.4,1.9c-0.1,0.5-0.3,0.9-0.6,1.3
			c-0.3,0.3-0.7,0.6-1.2,0.8c0.4,0.2,0.7,0.4,0.8,0.8s0.2,0.8,0.1,1.3L85.5,49c-0.1,0.3-0.1,0.6-0.1,0.8s0.1,0.4,0.2,0.5l0,0.2h-1.3
			c-0.1-0.1-0.2-0.4-0.2-0.6c0-0.3,0.1-0.6,0.1-0.9l0.2-0.8c0.1-0.5,0.1-0.9-0.1-1.2s-0.5-0.4-1-0.4L81.2,46.5L81.2,46.5z
			 M81.4,45.5h1.8c0.6,0,1.1-0.1,1.4-0.4c0.4-0.3,0.6-0.7,0.7-1.2c0.1-0.5,0.1-1-0.2-1.2s-0.6-0.4-1.2-0.4h-1.9L81.4,45.5z"/>
		<path class="st3" d="M94.2,42.2h-2.7l-1.6,8.3h-1.2l1.6-8.3h-2.7l0.2-1h6.7L94.2,42.2z"/>
		<path class="st3" d="M96.8,48c0.1-0.5,0.3-1,0.6-1.4c0.3-0.4,0.8-0.8,1.4-1.2c-0.3-0.4-0.4-0.8-0.5-1.1c-0.1-0.3-0.1-0.7-0.1-1
			c0.1-0.7,0.4-1.3,0.8-1.7c0.4-0.4,1-0.6,1.7-0.6c0.6,0,1.1,0.2,1.4,0.6c0.3,0.4,0.5,0.8,0.4,1.4c-0.1,0.4-0.2,0.8-0.5,1.1
			s-0.6,0.6-1.1,0.9l-0.7,0.5l1.6,2.6c0.2-0.3,0.4-0.6,0.5-0.9c0.1-0.3,0.2-0.7,0.3-1h1.1c-0.1,0.6-0.3,1.1-0.5,1.6
			c-0.2,0.5-0.5,0.9-0.9,1.3l0.9,1.5h-1.5l-0.4-0.6c-0.4,0.2-0.7,0.4-1.1,0.6s-0.8,0.2-1.2,0.2c-0.8,0-1.5-0.2-1.9-0.7
			C96.8,49.4,96.6,48.8,96.8,48z M99.3,49.7c0.3,0,0.5-0.1,0.8-0.2s0.6-0.3,0.8-0.4l-1.7-2.7l-0.2,0.2c-0.4,0.3-0.7,0.6-0.8,0.8
			C98.1,47.6,98,47.8,98,48c-0.1,0.5,0,0.9,0.2,1.2C98.4,49.5,98.8,49.7,99.3,49.7z M99.5,43.3c0,0.2,0,0.5,0,0.7
			c0.1,0.2,0.2,0.5,0.3,0.8l0.9-0.6c0.3-0.2,0.4-0.3,0.5-0.5s0.2-0.4,0.2-0.6c0-0.3,0-0.5-0.2-0.7s-0.4-0.3-0.7-0.3
			c-0.3,0-0.6,0.1-0.8,0.4C99.7,42.7,99.5,43,99.5,43.3z"/>
		<path class="st3" d="M111.6,50.5l0.1-0.9c-0.3,0.4-0.6,0.6-0.9,0.8s-0.7,0.3-1.1,0.3c-0.7,0-1.1-0.2-1.5-0.7
			c-0.3-0.5-0.4-1.2-0.2-2.2l0.8-4h1.2l-0.8,4.1c-0.2,0.8-0.2,1.3,0,1.5s0.4,0.4,0.8,0.4c0.4,0,0.7-0.1,1-0.3
			c0.3-0.2,0.6-0.4,0.8-0.8l1-4.9h1.2l-1.4,6.9L111.6,50.5L111.6,50.5z"/>
		<path class="st3" d="M118.6,44.7l-0.7,0c-0.3,0-0.5,0.1-0.8,0.2c-0.2,0.2-0.4,0.4-0.6,0.7l-1,4.9h-1.2l1.4-6.9h1.1l-0.1,0.9
			c0.2-0.3,0.5-0.6,0.8-0.8c0.3-0.2,0.6-0.3,1-0.3c0.1,0,0.2,0,0.3,0s0.2,0,0.2,0L118.6,44.7z"/>
		<path class="st3" d="M124.8,47.5c-0.2,1.1-0.6,1.8-1.1,2.4s-1.2,0.8-1.9,0.8c-0.4,0-0.7-0.1-1-0.3s-0.5-0.5-0.7-0.8l-0.3,1h-1.1
			l2-9.9h1.2l-0.7,3.7c0.2-0.2,0.5-0.4,0.8-0.6c0.3-0.1,0.6-0.2,1-0.2c0.7,0,1.3,0.4,1.6,1.1c0.4,0.7,0.4,1.6,0.2,2.7L124.8,47.5z
			 M123.6,47.3c0.2-0.8,0.2-1.5,0-2s-0.6-0.8-1.1-0.8c-0.3,0-0.6,0.1-0.8,0.3c-0.3,0.2-0.5,0.5-0.7,0.8l-0.6,3
			c0.1,0.3,0.3,0.5,0.5,0.7s0.5,0.3,0.9,0.3c0.5,0,0.9-0.2,1.2-0.6c0.3-0.4,0.5-0.9,0.7-1.6L123.6,47.3z"/>
		<path class="st3" d="M129.6,50.5c0-0.2,0-0.4,0-0.5c0-0.1,0-0.3,0-0.4c-0.3,0.3-0.6,0.6-1,0.8s-0.7,0.3-1.1,0.3
			c-0.6,0-1.1-0.2-1.4-0.6c-0.3-0.4-0.4-0.9-0.3-1.5c0.1-0.7,0.5-1.2,1-1.6s1.3-0.5,2.1-0.5h1.2l0.1-0.7c0.1-0.4,0-0.8-0.1-1
			c-0.2-0.2-0.5-0.3-0.9-0.3c-0.4,0-0.7,0.1-1,0.3c-0.3,0.2-0.5,0.5-0.5,0.7h-1.2l0,0c0.1-0.5,0.4-1,1-1.4c0.6-0.4,1.2-0.6,2-0.6
			c0.7,0,1.2,0.2,1.6,0.6s0.5,1,0.4,1.7l-0.7,3.3c-0.1,0.3-0.1,0.5-0.1,0.7c0,0.2,0,0.4,0,0.7L129.6,50.5L129.6,50.5z M127.9,49.6
			c0.3,0,0.7-0.1,1-0.3c0.4-0.2,0.6-0.4,0.8-0.7l0.3-1.3h-1.2c-0.4,0-0.8,0.1-1.1,0.4c-0.3,0.3-0.5,0.6-0.6,0.9
			c-0.1,0.3,0,0.6,0.1,0.7S127.6,49.6,127.9,49.6z"/>
		<path class="st3" d="M134.7,44.6c0.3-0.3,0.6-0.6,0.9-0.8c0.4-0.2,0.7-0.3,1.1-0.3c0.6,0,1.1,0.2,1.4,0.7c0.3,0.4,0.4,1.1,0.2,2
			l-0.9,4.3h-1.2l0.9-4.3c0.1-0.6,0.1-1.1-0.1-1.3c-0.2-0.2-0.5-0.4-0.9-0.4c-0.3,0-0.6,0.1-0.9,0.3s-0.5,0.4-0.8,0.7l-1,5h-1.2
			l1.4-6.9h1.1L134.7,44.6z"/>
		<path class="st3" d="M145.8,42l-0.3,1.7h1.2l-0.2,0.9h-1.2l-0.8,4.2c-0.1,0.3-0.1,0.6,0,0.7c0.1,0.1,0.2,0.2,0.5,0.2
			c0.1,0,0.2,0,0.4,0s0.2,0,0.3-0.1l0,0.9c-0.1,0.1-0.3,0.1-0.5,0.2s-0.4,0.1-0.7,0.1c-0.4,0-0.8-0.2-1-0.5s-0.3-0.8-0.2-1.4
			l0.8-4.2h-1l0.2-0.9h1l0.3-1.7L145.8,42L145.8,42z"/>
		<path class="st3" d="M151,44.7l-0.7,0c-0.3,0-0.5,0.1-0.8,0.2c-0.2,0.2-0.4,0.4-0.6,0.7l-1,4.9h-1.2l1.4-6.9h1.1l-0.1,0.9
			c0.2-0.3,0.5-0.6,0.8-0.8c0.3-0.2,0.6-0.3,1-0.3c0.1,0,0.2,0,0.3,0s0.2,0,0.2,0L151,44.7z"/>
		<path class="st3" d="M155,50.5c0-0.2,0-0.4,0-0.5c0-0.1,0-0.3,0-0.4c-0.3,0.3-0.6,0.6-1,0.8s-0.7,0.3-1.1,0.3
			c-0.6,0-1.1-0.2-1.4-0.6c-0.3-0.4-0.4-0.9-0.3-1.5c0.1-0.7,0.5-1.2,1-1.6s1.3-0.5,2.1-0.5h1.2l0.1-0.7c0.1-0.4,0-0.8-0.1-1
			c-0.2-0.2-0.5-0.3-0.9-0.3c-0.4,0-0.7,0.1-1,0.3c-0.3,0.2-0.5,0.5-0.5,0.7h-1.2l0,0c0.1-0.5,0.4-1,1-1.4c0.6-0.4,1.2-0.6,2-0.6
			c0.7,0,1.2,0.2,1.6,0.6s0.5,1,0.4,1.7l-0.7,3.3c-0.1,0.3-0.1,0.5-0.1,0.7c0,0.2,0,0.4,0,0.7L155,50.5L155,50.5z M153.4,49.6
			c0.3,0,0.7-0.1,1-0.3c0.4-0.2,0.6-0.4,0.8-0.7l0.3-1.3h-1.2c-0.4,0-0.8,0.1-1.1,0.4c-0.3,0.3-0.5,0.6-0.6,0.9
			c-0.1,0.3,0,0.6,0.1,0.7S153,49.6,153.4,49.6z"/>
		<path class="st3" d="M160.2,44.6c0.3-0.3,0.6-0.6,0.9-0.8c0.4-0.2,0.7-0.3,1.1-0.3c0.6,0,1.1,0.2,1.4,0.7c0.3,0.4,0.4,1.1,0.2,2
			l-0.9,4.3h-1.2l0.9-4.3c0.1-0.6,0.1-1.1-0.1-1.3c-0.2-0.2-0.5-0.4-0.9-0.4c-0.3,0-0.6,0.1-0.9,0.3s-0.5,0.4-0.8,0.7l-1,5h-1.2
			l1.4-6.9h1.1L160.2,44.6z"/>
		<path class="st3" d="M168.8,48.7c0-0.3,0-0.5-0.2-0.7s-0.5-0.3-1-0.5c-0.7-0.2-1.3-0.4-1.6-0.7s-0.5-0.7-0.4-1.3
			c0.1-0.6,0.4-1.1,0.9-1.4s1.1-0.6,1.8-0.6c0.7,0,1.3,0.2,1.7,0.6c0.4,0.4,0.5,0.9,0.4,1.5l0,0h-1.2c0.1-0.3,0-0.6-0.2-0.8
			c-0.2-0.2-0.5-0.4-0.8-0.4c-0.4,0-0.7,0.1-0.9,0.3c-0.2,0.2-0.4,0.4-0.4,0.7c0,0.3,0,0.5,0.1,0.6c0.1,0.1,0.5,0.3,1,0.4
			c0.8,0.2,1.3,0.4,1.7,0.8c0.3,0.3,0.5,0.7,0.4,1.3c-0.1,0.6-0.4,1.1-0.9,1.5s-1.2,0.5-1.9,0.5c-0.8,0-1.4-0.2-1.8-0.7
			c-0.4-0.4-0.6-1-0.4-1.5l0,0h1.2c-0.1,0.4,0,0.8,0.3,1s0.6,0.3,0.9,0.3c0.4,0,0.7-0.1,1-0.3C168.6,49.2,168.8,49,168.8,48.7z"/>
		<path class="st3" d="M177.3,47.5c-0.2,1.1-0.6,1.9-1.1,2.4c-0.5,0.5-1.1,0.8-1.9,0.8c-0.4,0-0.7-0.1-1-0.2s-0.5-0.3-0.7-0.6
			l-0.7,3.3h-1.2l1.9-9.5h1.1l0,0.7c0.3-0.3,0.5-0.5,0.9-0.6s0.7-0.2,1-0.2c0.7,0,1.3,0.4,1.6,1.1c0.4,0.7,0.4,1.6,0.2,2.7
			L177.3,47.5z M176.1,47.3c0.2-0.8,0.1-1.5-0.1-2c-0.2-0.5-0.6-0.8-1.1-0.8c-0.3,0-0.5,0.1-0.8,0.2s-0.5,0.4-0.7,0.7l-0.7,3.4
			c0.1,0.3,0.3,0.5,0.5,0.6c0.2,0.1,0.5,0.2,0.8,0.2c0.5,0,0.9-0.2,1.3-0.6s0.6-0.9,0.7-1.6L176.1,47.3z"/>
		<path class="st3" d="M178.5,47c0.2-1.1,0.6-1.9,1.2-2.5s1.4-1,2.3-1c0.9,0,1.5,0.3,1.9,1c0.4,0.7,0.6,1.5,0.4,2.5l0,0.1
			c-0.2,1.1-0.6,1.9-1.2,2.5s-1.4,0.9-2.3,0.9c-0.9,0-1.5-0.3-1.9-1c-0.4-0.7-0.6-1.5-0.4-2.5L178.5,47z M179.7,47.1
			c-0.1,0.8-0.1,1.4,0.1,1.8c0.2,0.5,0.6,0.7,1.1,0.7c0.5,0,1-0.2,1.3-0.7c0.4-0.5,0.6-1.1,0.7-1.8l0-0.1c0.1-0.7,0.1-1.3-0.1-1.8
			s-0.6-0.7-1.1-0.7c-0.5,0-1,0.2-1.3,0.7c-0.4,0.5-0.6,1.1-0.7,1.8L179.7,47.1z"/>
		<path class="st3" d="M189.3,44.7l-0.7,0c-0.3,0-0.5,0.1-0.8,0.2c-0.2,0.2-0.4,0.4-0.6,0.7l-1,4.9h-1.2l1.4-6.9h1.1l-0.1,0.9
			c0.2-0.3,0.5-0.6,0.8-0.8c0.3-0.2,0.6-0.3,1-0.3c0.1,0,0.2,0,0.3,0s0.2,0,0.2,0L189.3,44.7z"/>
		<path class="st3" d="M192.9,42l-0.3,1.7h1.2l-0.2,0.9h-1.2l-0.8,4.2c-0.1,0.3-0.1,0.6,0,0.7c0.1,0.1,0.2,0.2,0.5,0.2
			c0.1,0,0.2,0,0.4,0s0.2,0,0.3-0.1l0,0.9c-0.1,0.1-0.3,0.1-0.5,0.2s-0.4,0.1-0.7,0.1c-0.4,0-0.8-0.2-1-0.5s-0.3-0.8-0.2-1.4
			l0.8-4.2h-1l0.2-0.9h1l0.3-1.7L192.9,42L192.9,42z"/>
		<path class="st3" d="M203.1,47.5c-0.2,1.1-0.6,1.9-1.1,2.4c-0.5,0.5-1.1,0.8-1.9,0.8c-0.4,0-0.7-0.1-1-0.2s-0.5-0.3-0.7-0.6
			l-0.7,3.3h-1.2l1.9-9.5h1.1l0,0.7c0.3-0.3,0.5-0.5,0.9-0.6c0.3-0.1,0.7-0.2,1-0.2c0.7,0,1.3,0.4,1.6,1.1c0.4,0.7,0.4,1.6,0.2,2.7
			L203.1,47.5z M201.9,47.3c0.2-0.8,0.1-1.5-0.1-2c-0.2-0.5-0.6-0.8-1.1-0.8c-0.3,0-0.5,0.1-0.8,0.2s-0.5,0.4-0.7,0.7l-0.7,3.4
			c0.1,0.3,0.3,0.5,0.5,0.6c0.2,0.1,0.5,0.2,0.8,0.2c0.5,0,0.9-0.2,1.3-0.6s0.6-0.9,0.7-1.6L201.9,47.3z"/>
		<path class="st3" d="M205.3,50.5h-1.2l2-9.9h1.2L205.3,50.5z"/>
		<path class="st3" d="M211,50.5c0-0.2,0-0.4,0-0.5c0-0.1,0-0.3,0-0.4c-0.3,0.3-0.6,0.6-1,0.8s-0.7,0.3-1.1,0.3
			c-0.6,0-1.1-0.2-1.4-0.6c-0.3-0.4-0.4-0.9-0.3-1.5c0.1-0.7,0.5-1.2,1-1.6s1.3-0.5,2.1-0.5h1.2l0.1-0.7c0.1-0.4,0-0.8-0.1-1
			c-0.2-0.2-0.5-0.3-0.9-0.3c-0.4,0-0.7,0.1-1,0.3c-0.3,0.2-0.5,0.5-0.5,0.7h-1.2l0,0c0.1-0.5,0.4-1,1-1.4c0.5-0.4,1.2-0.6,2-0.6
			c0.7,0,1.2,0.2,1.6,0.6s0.5,1,0.4,1.7l-0.7,3.3c-0.1,0.3-0.1,0.5-0.1,0.7c0,0.2,0,0.4,0,0.7L211,50.5L211,50.5z M209.4,49.6
			c0.3,0,0.7-0.1,1-0.3c0.4-0.2,0.6-0.4,0.8-0.7l0.3-1.3h-1.2c-0.4,0-0.8,0.1-1.1,0.4c-0.3,0.3-0.5,0.6-0.6,0.9
			c-0.1,0.3,0,0.6,0.1,0.7S209.1,49.6,209.4,49.6z"/>
		<path class="st3" d="M216.2,44.6c0.3-0.3,0.6-0.6,0.9-0.8c0.4-0.2,0.7-0.3,1.1-0.3c0.6,0,1.1,0.2,1.4,0.7s0.4,1.1,0.2,2l-0.9,4.3
			h-1.2l0.9-4.3c0.1-0.6,0.1-1.1-0.1-1.3c-0.2-0.2-0.5-0.4-0.9-0.4c-0.3,0-0.6,0.1-0.9,0.3s-0.5,0.4-0.8,0.7l-1,5h-1.2l1.4-6.9h1.1
			L216.2,44.6z"/>
		<path class="st3" d="M223.2,44.6c0.3-0.3,0.6-0.6,0.9-0.8c0.4-0.2,0.7-0.3,1.1-0.3c0.6,0,1.1,0.2,1.4,0.7s0.4,1.1,0.2,2l-0.9,4.3
			h-1.2l0.9-4.3c0.1-0.6,0.1-1.1-0.1-1.3c-0.2-0.2-0.5-0.4-0.9-0.4c-0.3,0-0.6,0.1-0.9,0.3s-0.5,0.4-0.8,0.7l-1,5h-1.2l1.4-6.9h1.1
			L223.2,44.6z"/>
		<path class="st3" d="M229.1,50.5h-1.2l1.4-6.9h1.2L229.1,50.5z M230.8,41.9h-1.2l0.3-1.3h1.2L230.8,41.9z"/>
		<path class="st3" d="M233.3,44.6c0.3-0.3,0.6-0.6,0.9-0.8c0.4-0.2,0.7-0.3,1.1-0.3c0.6,0,1.1,0.2,1.4,0.7c0.3,0.4,0.4,1.1,0.2,2
			l-0.9,4.3h-1.2l0.9-4.3c0.1-0.6,0.1-1.1-0.1-1.3c-0.2-0.2-0.5-0.4-0.9-0.4c-0.3,0-0.6,0.1-0.9,0.3c-0.3,0.2-0.5,0.4-0.8,0.7l-1,5
			h-1.2l1.4-6.9h1.1L233.3,44.6z"/>
		<path class="st3" d="M238.3,47.1c0.2-1.2,0.6-2.1,1.1-2.7c0.5-0.6,1.2-0.9,2-0.9c0.4,0,0.7,0.1,1,0.2c0.3,0.2,0.5,0.4,0.7,0.7
			l0.3-0.8h1l-1.4,6.8c-0.2,0.9-0.6,1.7-1.1,2.1s-1.3,0.7-2.2,0.7c-0.3,0-0.6,0-1-0.1c-0.4-0.1-0.6-0.2-0.9-0.4l0.5-1
			c0.2,0.1,0.4,0.2,0.7,0.3c0.3,0.1,0.6,0.1,0.9,0.1c0.5,0,0.9-0.2,1.3-0.5c0.3-0.3,0.6-0.8,0.7-1.3l0.1-0.5
			c-0.2,0.2-0.5,0.4-0.8,0.5c-0.3,0.1-0.6,0.2-0.9,0.2c-0.7,0-1.3-0.3-1.7-1c-0.4-0.7-0.5-1.5-0.3-2.4L238.3,47.1z M239.5,47.2
			c-0.1,0.7-0.1,1.3,0.1,1.8s0.6,0.7,1.2,0.7c0.3,0,0.6-0.1,0.8-0.3c0.2-0.2,0.5-0.4,0.7-0.7l0.6-3.2c-0.1-0.3-0.3-0.5-0.5-0.7
			c-0.2-0.2-0.5-0.2-0.8-0.2c-0.5,0-0.9,0.2-1.3,0.7c-0.3,0.5-0.6,1.1-0.7,1.9L239.5,47.2z"/>
	</g>
</g>
</svg>
