<?xml version="1.0" encoding="utf-8"?>
<!-- Generator: Adobe Illustrator 16.0.0, SVG Export Plug-In . SVG Version: 6.00 Build 0)  -->
<!DOCTYPE svg PUBLIC "-//W3C//DTD SVG 1.1//EN" "http://www.w3.org/Graphics/SVG/1.1/DTD/svg11.dtd">
<svg version="1.1" id="图层_1" xmlns="http://www.w3.org/2000/svg" xmlns:xlink="http://www.w3.org/1999/xlink" x="0px" y="0px"
	 width="193px" height="51.085px" viewBox="241.45 240.556 193 51.085" enable-background="new 241.45 240.556 193 51.085"
	 xml:space="preserve">
<g id="线路">
	<path id="B82" fill="none" stroke="#1C2A55" stroke-width="1.7008" stroke-linejoin="round" stroke-miterlimit="10" d="
		M89.776,444.25h208.188c3.619,0,7.296-0.688,10.85-2.156c3.551-1.473,6.637-3.586,9.194-6.146l90.319-90.316
		c2.565-2.564,6.108-4.15,10.022-4.15c3.912,0,7.457,1.586,10.021,4.15l15.392,15.391c3.078,3.078,7.33,4.98,12.026,4.98
		s8.948-1.902,12.026-4.98l37.505-37.504c3.078-3.078,7.33-4.98,12.023-4.98c4.695,0,8.947,1.904,12.025,4.98L691.29,485.436
		c3.07,3.07,6.772,5.607,11.035,7.373c4.264,1.766,8.676,2.59,13.018,2.59h2.277"/>
	<g id="B80">
		<path id="B80下行" fill="none" stroke="#006038" stroke-width="1.7008" stroke-linejoin="round" stroke-miterlimit="10" d="
			M655.386,566.287c-1.539,1.539-2.49,3.666-2.49,6.018c0,2.348,0.951,4.475,2.49,6.014l0.729,0.729
			c0.813,0.813,1.314,1.938,1.314,3.18c0,1.24-0.504,2.365-1.314,3.178l-0.518,0.518c-0.813,0.813-1.938,1.314-3.178,1.314
			c-1.242,0-2.365-0.504-3.18-1.314l-6.4-6.398c-1.537-1.539-3.664-2.49-6.012-2.49c-2.351,0-4.476,0.951-6.015,2.49"/>
		<path id="B80上行" fill="none" stroke="#026636" stroke-width="1.7008" stroke-linejoin="round" stroke-miterlimit="10" d="
			M884.478,449.734l-51.73,51.732c-3.07,3.068-6.773,5.605-11.035,7.375c-4.262,1.764-8.676,2.588-13.018,2.588h-45.354h-43.987
			c-2.808,0-5.657,0.533-8.416,1.674c-2.757,1.143-5.147,2.783-7.136,4.77l-51.98,51.982c-0.625,0.627-1.49,1.014-2.445,1.014
			s-1.817-0.387-2.445-1.014l-0.045-0.045c-0.813-0.813-1.938-1.314-3.178-1.314c-1.242,0-2.365,0.504-3.18,1.314l-12.75,12.748
			c-3.076,3.076-7.328,4.98-12.025,4.98c-4.694,0-8.947-1.904-12.024-4.98L410.29,389.129c-1.025-1.027-1.66-2.443-1.66-4.012
			c0-1.563,0.635-2.98,1.66-4.01l4.563-4.563c1.024-1.025,2.441-1.66,4.009-1.66c1.563,0,2.981,0.635,4.009,1.66l1.342,1.342
			c1.026,1.027,1.661,2.443,1.661,4.01s-0.634,2.982-1.661,4.008l-4.563,4.564c-1.026,1.025-1.66,2.441-1.66,4.008
			c0,1.568,0.634,2.982,1.66,4.01"/>
	</g>
	<path id="B37" fill="none" stroke="#6495B8" stroke-width="1.7008" stroke-linejoin="round" stroke-miterlimit="10" d="
		M717.623,507.479c-2.754,0.184-5.525,0.809-8.219,1.924c-3.258,1.35-6.09,3.289-8.438,5.635l-45.926,45.928
		c-0.727,0.725-1.729,1.174-2.834,1.174s-2.109-0.449-2.834-1.174l0,0c-0.729-0.729-1.729-1.178-2.834-1.178
		c-1.107,0-2.109,0.449-2.834,1.178l-9.021,9.018c-1.629,1.629-2.635,3.877-2.635,6.359c0,2.479,1.006,4.729,2.635,6.355
		l140.262,140.258c2.004,2.006,3.24,4.771,3.24,7.83c0,3.061-1.236,5.824-3.24,7.828l-2.742,2.742
		c-1.238,1.238-2.004,2.949-2.004,4.838c0,1.891,0.766,3.602,2.004,4.84l8.775,8.777c1.236,1.238,2.947,2.004,4.84,2.004
		c1.891,0,3.602-0.766,4.84-2.004l5.729-5.732c1.238-1.234,2.949-2.004,4.84-2.004s3.602,0.77,4.84,2.004l8.771,8.771
		c1.238,1.236,2.004,2.949,2.004,4.84c0,1.889-0.766,3.6-2.004,4.838l-2.742,2.742c-2.004,2.002-4.77,3.242-7.827,3.242
		c-3.059,0-5.823-1.24-7.828-3.242l-15.459-15.459"/>
	<path id="B28" fill="none" stroke="#21A464" stroke-width="1.7008" stroke-linejoin="round" stroke-miterlimit="10" d="
		M378.848,274.262c-2.177,0-4.354,0.83-6.014,2.49c-1.66,1.658-2.491,3.838-2.491,6.014v39.619c0,0.873-0.166,1.758-0.52,2.611
		c-0.354,0.857-0.864,1.604-1.481,2.219l-1.753,1.754c-0.654,0.652-1.563,1.063-2.563,1.063s-1.909-0.406-2.565-1.063
		l-18.246-18.246c-1.539-1.539-2.489-3.666-2.489-6.016c0-2.348,0.95-4.475,2.489-6.014l16.963-16.963
		c2.305-2.301,5.08-4.205,8.276-5.529c3.197-1.322,6.506-1.939,9.763-1.939h20.541c1.451,0,2.902,0.553,4.011,1.66
		c1.105,1.105,1.66,2.559,1.658,4.01l-0.001,34.705c0,2.172,0.412,4.379,1.297,6.512c0.884,2.131,2.152,3.984,3.688,5.52
		l0.093,0.096c2.99,2.986,4.839,7.119,4.839,11.682s-1.849,8.691-4.839,11.682l-95.512,95.516c-1.327,1.326-2.147,3.158-2.147,5.184
		s0.821,3.855,2.147,5.186l0.838,0.838c1.326,1.328,3.159,2.146,5.184,2.146c2.023,0,3.856-0.818,5.185-2.146l3.386-3.387
		c1.751-1.752,4.171-2.834,6.843-2.834c2.673,0,5.094,1.082,6.845,2.834l0.355,0.355c1.751,1.752,2.834,4.172,2.834,6.844
		s-1.083,5.092-2.834,6.844L303.234,506.9"/>
	<path id="B27" fill="none" stroke="#DD5519" stroke-width="1.7008" stroke-linejoin="round" stroke-miterlimit="10" d="
		M144.212,65.786h31.104c4.353,0,8.706,1.661,12.024,4.981c3.32,3.318,4.981,7.674,4.981,12.023l0.001,223.365
		c0,8.688,1.646,17.514,5.179,26.035c3.531,8.523,8.606,15.93,14.748,22.07l78.861,78.859c3.078,3.078,7.33,4.98,12.024,4.98
		c4.696,0,8.949-1.902,12.026-4.98l91.506-91.506c1.539-1.539,2.491-3.664,2.491-6.012s-0.952-4.475-2.491-6.014l-0.103-0.104
		c-1.897-1.896-3.466-4.186-4.559-6.816c-1.091-2.637-1.6-5.361-1.599-8.045l-0.001-48.993c0-0.868-0.332-1.739-0.996-2.403
		c-0.665-0.664-1.535-0.996-2.405-0.996h-2.22c-0.87,0-1.741-0.332-2.405-0.996c-0.664-0.666-0.996-1.535-0.996-2.404v-5.229
		c0-0.871,0.332-1.742,0.996-2.405c0.665-0.663,1.535-0.995,2.405-0.995h2.22c0.87,0,1.741,0.332,2.405,0.995
		c0.664,0.665,0.996,1.534,0.996,2.405v12.028"/>
	<g id="B211">
		<path id="B211下行" fill="none" stroke="#D1D622" stroke-width="1.7008" stroke-linejoin="round" stroke-miterlimit="10" d="
			M477.982,362.193l-23.798,24.031c-1.313,1.328-2.121,3.158-2.115,5.174s0.826,3.84,2.146,5.16l1.688,1.688
			c1.327,1.326,3.16,2.146,5.184,2.146c2.024,0,3.857-0.82,5.186-2.148l7.841-7.844c2.774-2.779,6.611-4.498,10.853-4.498
			c4.239,0,8.076,1.717,10.854,4.494"/>
		<path fill="none" stroke="#D1D622" stroke-width="1.7008" stroke-linejoin="round" stroke-miterlimit="10" d="M677.562,585.926
			c0.287,1.08,0.443,2.215,0.443,3.385c0,3.59-1.455,6.84-3.809,9.193L668.7,604c-2.354,2.354-5.604,3.809-9.191,3.809
			c-3.59,0-6.84-1.455-9.189-3.809l-18.468-18.469c-2.354-2.354-3.81-5.604-3.81-9.189c0-3.588,1.455-6.842,3.81-9.193l8.332-8.332
			c3.077-3.078,4.981-7.33,4.981-12.025s-1.904-8.947-4.981-12.025l-162.2-162.203c-1.327-1.326-2.147-3.16-2.147-5.184
			s0.82-3.857,2.147-5.186l42.666-42.666c2.053-2.051,3.318-4.887,3.318-8.018s-1.27-5.967-3.321-8.02l-0.245-0.25
			c-1.023-1.02-1.871-2.258-2.459-3.678c-0.591-1.42-0.863-2.891-0.863-4.338v-60.086c0-4.355-1.66-8.705-4.98-12.027
			c-3.318-3.32-7.674-4.98-12.023-4.98H453.3c-2.051,0-4.103-0.781-5.668-2.35c-1.563-1.563-2.348-3.615-2.348-5.668l-0.001-16.379
			c0-1.449,0.554-2.9,1.661-4.008c1.104-1.107,2.558-1.662,4.009-1.662h0.685c1.573,0,3.064,0.932,3.703,2.475
			c0.641,1.543,0.243,3.256-0.868,4.367l-5.866,5.867c-1.023,1.022-1.869,2.258-2.458,3.68c-0.589,1.42-0.863,2.893-0.863,4.338"/>
	</g>
	<g id="B21">
		<path id="B21下行B" fill="none" stroke="#75558F" stroke-width="1.7008" stroke-linejoin="round" stroke-miterlimit="10" d="
			M475.147,359.359l-23.833,24.031c-2.031,2.057-3.281,4.885-3.271,8.002c0.009,3.119,1.277,5.938,3.321,7.98l1.706,1.705
			c2.052,2.057,4.888,3.322,8.019,3.322c3.131-0.002,5.967-1.271,8.02-3.324l7.841-7.844c2.052-2.053,4.887-3.322,8.019-3.322
			c3.132-0.002,5.968,1.271,8.021,3.32"/>
		<path id="B21下行A" fill="none" stroke="#75558F" stroke-width="1.7008" stroke-linejoin="round" stroke-miterlimit="10" d="
			M412.439,195.596c0,2.176-0.83,4.352-2.491,6.012s-3.837,2.492-6.013,2.492h-8.049c-2.177,0-4.352,0.83-6.013,2.488
			c-1.661,1.662-2.492,3.84-2.492,6.016v1.035c0,2.176,0.831,4.353,2.492,6.012c1.661,1.66,3.836,2.492,6.013,2.492h25.057"/>
		<path id="B21上行" fill="none" stroke="#75558F" stroke-width="1.7008" stroke-linejoin="round" stroke-miterlimit="10" d="
			M681.669,585.881c0.228,1.104,0.344,2.252,0.344,3.428c0.002,4.695-1.9,8.947-4.979,12.025l-5.5,5.496
			c-3.078,3.078-7.33,4.982-12.025,4.982c-4.696,0-8.948-1.904-12.026-4.979l-18.468-18.469c-3.077-3.078-4.979-7.33-4.979-12.023
			c0-4.697,1.901-8.949,4.979-12.027l8.334-8.334c2.354-2.352,3.811-5.602,3.811-9.191s-1.455-6.84-3.811-9.189l-162.2-162.201
			c-2.054-2.053-3.321-4.887-3.321-8.018c0-3.133,1.269-5.969,3.321-8.02l42.677-42.676c1.325-1.326,2.146-3.154,2.146-5.176
			c0.002-2.023-0.813-3.855-2.137-5.184l-0.293-0.293c-1.379-1.385-2.521-3.053-3.313-4.971c-0.793-1.918-1.162-3.904-1.162-5.859
			v-60.063c0-3.326-1.27-6.654-3.809-9.191c-2.537-2.539-5.865-3.809-9.191-3.809h-79.124c-2.178,0-4.354-0.83-6.015-2.49
			c-1.658-1.662-2.489-3.838-2.489-6.014v-54.312"/>
	</g>
	<path id="B20" fill="none" stroke="#F1C060" stroke-width="1.7008" stroke-linejoin="round" stroke-miterlimit="10" d="
		M364.33,257.82c0,4.343-0.824,8.757-2.589,13.019c-1.765,4.265-4.303,7.968-7.374,11.038l-13.988,13.984
		c-2.264,2.268-3.665,5.395-3.665,8.85c0,3.453,1.4,6.584,3.665,8.848l18.248,18.248c1.382,1.381,3.291,2.234,5.4,2.234
		c2.107,0,4.018-0.854,5.398-2.234l0.016-0.018c0.654-0.654,1.563-1.063,2.563-1.063s1.909,0.406,2.566,1.063l2.195,2.195
		c1.537,1.539,3.663,2.492,6.014,2.492c2.348,0,4.474-0.953,6.013-2.492l10.789-10.789c1.539-1.539,3.665-2.492,6.013-2.492
		c2.35,0,4.477,0.953,6.015,2.492l34.991,34.99c2.353,2.352,5.603,3.807,9.19,3.807s6.839-1.455,9.192-3.807l42.686-42.689
		c1.752-1.75,2.836-4.17,2.836-6.844c-0.002-2.672-1.084-5.092-2.836-6.842l-0.541-0.541c-0.641-0.641-1.168-1.412-1.537-2.299
		c-0.367-0.891-0.539-1.811-0.539-2.713v-41.561c0-2.176-0.83-4.354-2.489-6.014s-3.839-2.49-6.015-2.49H372.833
		c-2.176,0-4.353,0.83-6.013,2.49c-1.66,1.662-2.491,3.838-2.491,6.014L364.33,257.82L364.33,257.82z"/>
	<path id="B17" fill="none" stroke="#DC8289" stroke-width="1.7008" stroke-linejoin="round" stroke-miterlimit="10" d="
		M509.058,188.391c0-3.258,0.619-6.565,1.943-9.766c1.322-3.193,3.229-5.975,5.529-8.273l9.209-9.211
		c2.303-2.305,4.207-5.08,5.527-8.274c1.324-3.197,1.943-6.507,1.943-9.765v-41.924c0-2.9-1.107-5.805-3.322-8.02
		c-2.213-2.215-5.112-3.32-8.018-3.32H520.4c-2.902,0-5.807,1.105-8.02,3.32c-2.215,2.215-3.322,5.115-3.322,8.02v176.596
		c0,4.342-0.822,8.754-2.59,13.018c-1.766,4.264-4.303,7.967-7.373,11.035l-20.639,20.641c-2.303,2.303-5.081,4.207-8.278,5.529
		c-3.195,1.324-6.507,1.941-9.764,1.941h-3.229c-1.598,0-3.192,0.609-4.41,1.826c-1.218,1.219-1.827,2.813-1.827,4.41v1.145
		c0,1.334-0.791,2.604-2.101,3.146c-1.311,0.541-2.764,0.207-3.706-0.738l-21.083-21.082c-2.349-2.348-4.287-5.178-5.638-8.438
		c-1.349-3.258-1.979-6.631-1.979-9.947l0.001-19.84c0-2.605,0.992-5.203,2.977-7.189c1.985-1.982,4.586-2.978,7.188-2.978h58.07
		c2.178,0,4.354-0.83,6.016-2.489c1.658-1.66,2.49-3.837,2.49-6.015v-3.039c0-2.176,0.829-4.354,2.489-6.015
		c1.662-1.659,3.838-2.489,6.015-2.489h-1.138c2.177,0,4.354-0.83,6.015-2.492c1.66-1.659,2.489-3.836,2.489-6.012"/>
	<g id="B6">
		<path id="B6下行" fill="none" stroke="#CBA6C5" stroke-width="1.7008" stroke-linejoin="round" stroke-miterlimit="10" d="
			M307.703,221.313v16.381c0,2.177,0.83,4.353,2.491,6.013s3.837,2.491,6.013,2.491h14.563c2.176,0,4.353,0.83,6.013,2.49
			c1.66,1.662,2.491,3.838,2.491,6.015v8.506c0,2.17-0.412,4.377-1.294,6.508c-0.885,2.134-2.152,3.981-3.688,5.521l-15.344,15.344
			c-0.923,0.926-1.495,2.199-1.495,3.607c0,1.41,0.571,2.686,1.495,3.609l0.473,0.473c0.923,0.922,2.199,1.494,3.608,1.494
			s2.685-0.57,3.605-1.494l22.063-22.063c3.07-3.068,6.771-5.607,11.036-7.374c4.262-1.767,8.675-2.588,13.017-2.588"/>
		<path id="B6上行" fill="none" stroke="#CBA6C5" stroke-width="1.7008" stroke-linejoin="round" stroke-miterlimit="10" d="
			M380.334,125.889l-0.469-0.471c-1.539-1.539-3.665-2.488-6.013-2.488c-2.35,0-4.476,0.949-6.015,2.488l-50.175,50.178
			c-3.07,3.068-5.607,6.771-7.374,11.035c-1.766,4.264-2.589,8.678-2.589,13.02v21.662c0,1.752,0.668,3.502,2.004,4.838
			s3.087,2.004,4.838,2.004h0.126c2.022,0,4.077,0.384,6.063,1.205c1.982,0.822,3.709,2.004,5.138,3.435l8.422,8.422
			c1.535,1.535,3.387,2.806,5.52,3.688c2.131,0.883,4.338,1.295,6.509,1.295h5.5c2.176,0,4.353,0.83,6.013,2.49
			c1.66,1.662,2.491,3.838,2.491,6.014v3.037c0,2.176,0.831,4.354,2.492,6.014s3.836,2.49,6.012,2.49h29.44
			c3.627,0,7.254,1.385,10.021,4.15c2.768,2.766,4.151,6.395,4.151,10.021v19.844c0,3.83,0.727,7.723,2.283,11.48
			c1.559,3.762,3.797,7.027,6.506,9.734l31.04,31.041c1.627,1.627,3.875,2.633,6.356,2.633c2.483,0,4.731-1.006,6.358-2.633
			l82.265-82.268"/>
	</g>
	<path id="B5" fill="none" stroke="#93C1BC" stroke-width="1.7008" stroke-linejoin="round" stroke-miterlimit="10" d="
		M808.695,609.148v-76.703c0-4.352-1.66-8.705-4.98-12.023c-3.322-3.32-7.674-4.98-12.027-4.98h-72.293
		c-2.295,0-4.627,0.436-6.879,1.367s-4.209,2.27-5.832,3.895l-48.453,48.428c-0.813,0.813-1.314,1.936-1.314,3.178
		s0.504,2.365,1.314,3.18l0.729,0.729c1.539,1.539,2.49,3.666,2.488,6.014c0,2.35-0.953,4.475-2.492,6.014l-0.52,0.52
		c-1.539,1.537-3.664,2.488-6.014,2.486c-2.348,0-4.473-0.949-6.012-2.488l-30.492-30.494c-1.539-1.537-2.492-3.664-2.492-6.014
		s0.953-4.477,2.492-6.014l0.514-0.516c1.539-1.539,3.666-2.492,6.018-2.492c2.348,0,4.475,0.953,6.014,2.492l20.58,20.576
		c1.539,1.539,3.664,2.486,6.012,2.488c2.35,0,4.475-0.949,6.014-2.486"/>
	<path id="B3" fill="none" stroke="#706961" stroke-width="1.7008" stroke-linejoin="round" stroke-miterlimit="10" d="
		M395.703-9.262l1.248,1.248c2.303,2.303,4.206,5.08,5.53,8.275c1.322,3.195,1.94,6.506,1.94,9.764v251.722
		c0,2.176-0.83,4.354-2.49,6.015c-1.66,1.659-3.838,2.489-6.014,2.489H372.75c-3.831,0-7.724,0.729-11.483,2.285
		c-3.761,1.56-7.026,3.796-9.734,6.505l-13.986,13.986c-2.988,2.988-4.838,7.119-4.838,11.684c0,4.563,1.85,8.689,4.839,11.682
		l65.896,65.895"/>
	<path id="B1" fill="none" stroke="#C8134D" stroke-width="1.7008" stroke-linejoin="round" stroke-miterlimit="10" d="
		M717.623,503.465c-3.268,0.188-6.559,0.91-9.754,2.232c-3.76,1.561-7.025,3.795-9.734,6.504l-36.731,36.732
		c-3.077,3.078-7.329,4.979-12.024,4.979c-4.697,0-8.949-1.9-12.027-4.979L466.644,378.23c-2.054-2.051-4.888-3.32-8.019-3.32
		s-5.965,1.271-8.017,3.32l-2.181,2.178c-2.052,2.055-4.886,3.32-8.017,3.32s-5.965-1.27-8.017-3.322l-5.162-5.16l-29.891-29.889
		c-3.068-3.07-5.606-6.773-7.374-11.035c-1.766-4.262-2.589-8.676-2.589-13.018v-70.611c0-2.176-0.83-4.354-2.489-6.012
		c-1.661-1.66-3.839-2.492-6.015-2.492h-6.045c-2.176,0-4.353-0.83-6.013-2.49c-1.66-1.661-2.491-3.838-2.491-6.014v-3.041
		c0-2.176,0.83-4.354,2.491-6.014c1.661-1.658,3.837-2.49,6.013-2.49h6.045c2.176,0,4.354,0.83,6.015,2.49
		c1.658,1.66,2.489,3.838,2.489,6.014v20.049"/>
	<g id="B9">
		<path fill="none" stroke="#20459A" stroke-width="2.7496" stroke-linejoin="round" stroke-miterlimit="10" d="M717.623,499.449
			c-3.779,0.191-7.59,1.018-11.285,2.545c-4.262,1.768-7.965,4.307-11.035,7.373L658.568,546.1
			c-2.354,2.352-5.604,3.807-9.191,3.807c-3.59,0-6.84-1.455-9.193-3.807l-221.79-221.789c-3.07-3.07-5.608-6.773-7.374-11.037
			c-1.768-4.262-2.591-8.674-2.591-13.016V159.327"/>
	</g>
</g>
<g id="站点">
	
		<circle id="B82上" fill="#FFFFFF" stroke="#1C2A55" stroke-width="1.2189" stroke-linejoin="round" stroke-miterlimit="10" cx="84.777" cy="410.251" r="2.452"/>
	
		<circle id="B80下" fill="#FFFFFF" stroke="#026636" stroke-width="1.2189" stroke-linejoin="round" stroke-miterlimit="10" cx="879.478" cy="415.735" r="2.452"/>
	
		<circle id="B80上" fill="#FFFFFF" stroke="#026636" stroke-width="1.2189" stroke-linejoin="round" stroke-miterlimit="10" cx="405.927" cy="355.769" r="2.452"/>
	
		<circle id="B37下" fill="#FFFFFF" stroke="#6495B8" stroke-width="1.2189" stroke-linejoin="round" stroke-miterlimit="10" cx="806.707" cy="741.662" r="2.451"/>
	
		<circle id="B28下" fill="#FFFFFF" stroke="#21A464" stroke-width="1.2189" stroke-linejoin="round" stroke-miterlimit="10" cx="298.232" cy="472.894" r="2.452"/>
	
		<circle id="B28上" fill="#FFFFFF" stroke="#21A464" stroke-width="1.2189" stroke-linejoin="round" stroke-miterlimit="10" cx="362.468" cy="294.093" r="2.452"/>
	
		<circle id="B27下" fill="#FFFFFF" stroke="#DD5519" stroke-width="1.2189" stroke-linejoin="round" stroke-miterlimit="10" cx="139.212" cy="31.786" r="2.452"/>
	
		<circle id="B27上" fill="#FFFFFF" stroke="#DD5519" stroke-width="1.2189" stroke-linejoin="round" stroke-miterlimit="10" cx="392.407" cy="216.228" r="2.452"/>
	
		<circle id="B211下" fill="#FFFFFF" stroke="#D1D622" stroke-width="1.2189" stroke-linejoin="round" stroke-miterlimit="10" cx="672.558" cy="551.927" r="2.452"/>
	
		<circle id="B211上" fill="#FFFFFF" stroke="#D1D622" stroke-width="1.2189" stroke-linejoin="round" stroke-miterlimit="10" cx="445.31" cy="154.104" r="2.452"/>
	
		<circle id="B21下" fill="#FFFFFF" stroke="#75558F" stroke-width="1.2189" stroke-linejoin="round" stroke-miterlimit="10" cx="676.667" cy="551.88" r="2.452"/>
	
		<circle id="B20_1_" fill="#FFFFFF" stroke="#F1C060" stroke-width="1.2189" stroke-linejoin="round" stroke-miterlimit="10" cx="500.052" cy="230.238" r="2.452"/>
	
		<circle id="B17下" fill="#FFFFFF" stroke="#DC8289" stroke-width="1.2189" stroke-linejoin="round" stroke-miterlimit="10" cx="446.583" cy="299.444" r="2.452"/>
	
		<circle id="B17上" fill="#FFFFFF" stroke="#DC8289" stroke-width="1.2189" stroke-linejoin="round" stroke-miterlimit="10" cx="504.058" cy="77.06" r="2.452"/>
	
		<circle id="B06下" fill="#FFFFFF" stroke="#CBA6C5" stroke-width="1.2189" stroke-linejoin="round" stroke-miterlimit="10" cx="542.25" cy="236.25" r="2.452"/>
	
		<circle id="B06上" fill="#FFFFFF" stroke="#CBA6C5" stroke-width="1.2189" stroke-linejoin="round" stroke-miterlimit="10" cx="375.334" cy="91.892" r="2.452"/>
	
		<circle id="B05下" fill="#FFFFFF" stroke="#93C1BC" stroke-width="1.2189" stroke-linejoin="round" stroke-miterlimit="10" cx="803.695" cy="575.147" r="2.452"/>
	
		<circle id="B05上" fill="#FFFFFF" stroke="#82BDB6" stroke-width="1.2189" stroke-linejoin="round" stroke-miterlimit="10" cx="615.103" cy="528.444" r="2.452"/>
	
		<circle id="B03下" fill="#FFFFFF" stroke="#706961" stroke-width="1.2189" stroke-linejoin="round" stroke-miterlimit="10" cx="398.442" cy="348.286" r="2.452"/>
	
		<circle id="B03上" fill="#FFFFFF" stroke="#706961" stroke-width="1.2189" stroke-linejoin="round" stroke-miterlimit="10" cx="390.704" cy="-43.26" r="2.452"/>
	
		<circle id="B01上" fill="#FFFFFF" stroke="#C8134D" stroke-width="1.2189" stroke-linejoin="round" stroke-miterlimit="10" cx="360.086" cy="193.153" r="2.452"/>
</g>
</svg>
