<?xml version="1.0" encoding="utf-8"?>
<!-- Generator: Adobe Illustrator 21.0.0, SVG Export Plug-In . SVG Version: 6.00 Build 0)  -->
<svg version="1.1" id="图层_1" xmlns="http://www.w3.org/2000/svg" xmlns:xlink="http://www.w3.org/1999/xlink" x="0px" y="0px"
	 viewBox="0 0 339 118" style="enable-background:new 0 0 339 118;" xml:space="preserve">
<style type="text/css">
	.st0{fill:#353A43;}
	.st1{fill:none;}
	.st2{enable-background:new    ;}
</style>
<g transform="translate(26 17)">
	<path class="st0" d="M-8.7,66.5v10.8h1.4v-5.1h5.2v5.1h1.4V66.5h-1.4V71h-5.2v-4.5H-8.7z M5,69.4c2.2,0,3.7,1.6,3.7,4
		c0,2.9-2,4.1-3.9,4.1c-2.1,0-3.7-1.5-3.7-4C1.1,70.9,2.8,69.4,5,69.4z M4.9,70.5c-1.7,0-2.4,1.5-2.4,3c0,1.7,1,3,2.4,3
		c1.3,0,2.4-1.3,2.4-3C7.3,72.1,6.6,70.5,4.9,70.5z M9.9,77c0.5,0.3,1.3,0.5,2.2,0.5c1.8,0,2.9-1,2.9-2.3c0-1.2-0.7-1.8-2-2.3
		c-1-0.4-1.5-0.7-1.5-1.3c0-0.6,0.5-1.1,1.3-1.1c0.7,0,1.3,0.3,1.6,0.4l0.4-1c-0.4-0.3-1.1-0.5-1.9-0.5c-1.7,0-2.7,1-2.7,2.3
		c0,0.9,0.7,1.7,2,2.2c1,0.4,1.4,0.8,1.4,1.4s-0.5,1.2-1.5,1.2c-0.7,0-1.4-0.3-1.9-0.6L9.9,77z M17.1,67.7v1.9h-1.2v1.1h1.2v4.2
		c0,0.9,0.1,1.6,0.5,2c0.3,0.4,0.9,0.6,1.5,0.6c0.5,0,1-0.1,1.2-0.2l-0.1-1.1c-0.2,0-0.4,0.1-0.8,0.1c-0.8,0-1.1-0.5-1.1-1.5v-4.2h2
		v-1.1h-2v-2.2L17.1,67.7z M28.3,73.7h-5.4c0,1.9,1.2,2.7,2.7,2.7c1,0,1.6-0.2,2.1-0.4l0.2,1c-0.5,0.2-1.3,0.5-2.6,0.5
		c-2.4,0-3.8-1.6-3.8-3.9s1.4-4.2,3.6-4.2c2.5,0,3.2,2.2,3.2,3.6C28.4,73.3,28.3,73.6,28.3,73.7z M22.9,72.7H27c0-0.9-0.4-2.3-2-2.3
		C23.6,70.4,23,71.7,22.9,72.7z M35.4,66h1.4v9.4c0,0.7,0,1.5,0.1,2h-1.3L35.5,76l0,0c-0.4,0.9-1.4,1.5-2.6,1.5
		c-1.9,0-3.3-1.6-3.3-3.9c0-2.6,1.6-4.2,3.5-4.2c1.2,0,2,0.6,2.3,1.2l0,0V66z M35.4,74.1v-1.3c0-0.2,0-0.4-0.1-0.6
		c-0.2-0.9-1-1.6-2-1.6c-1.5,0-2.3,1.3-2.3,3c0,1.6,0.8,2.9,2.3,2.9c0.9,0,1.8-0.6,2.1-1.7C35.4,74.5,35.4,74.3,35.4,74.1z
		 M43.7,77.3h-1.2c0-0.5,0.1-1.3,0.1-2V66H44v4.9l0,0c0.5-0.9,1.4-1.4,2.6-1.4c1.9,0,3.3,1.6,3.3,4c0,2.8-1.7,4.1-3.5,4.1
		c-1.1,0-2-0.4-2.6-1.5l0,0L43.7,77.3z M43.9,72.8v1.4c0,0.2,0,0.4,0.1,0.5c0.3,1,1.1,1.6,2.1,1.6c1.5,0,2.4-1.2,2.4-3
		c0-1.6-0.8-2.9-2.3-2.9c-1,0-1.9,0.7-2.1,1.7C44,72.4,43.9,72.6,43.9,72.8z M50.6,69.6l2.9,7.1c0.1,0.2,0.1,0.3,0.1,0.4
		s0,0.2-0.1,0.3c-0.3,0.7-0.8,1.3-1.2,1.6c-0.4,0.4-0.9,0.6-1.2,0.7l0.4,1.2c0.4-0.1,1-0.3,1.7-0.9c1-0.8,1.6-2.2,2.7-4.8l2.1-5.5
		h-1.5L55,74.2c-0.2,0.6-0.4,1.2-0.5,1.6l0,0c-0.1-0.5-0.3-1.1-0.5-1.6l-1.7-4.6C52.3,69.6,50.6,69.6,50.6,69.6z M-15.9,93.1
		c-0.5,0.2-1.3,0.4-2,0.4c-2.2,0-3.5-1.4-3.5-3.5c0-2.4,1.5-3.6,3.4-3.6c0.9,0,1.6,0.2,2,0.4l0.5-1.9c-0.4-0.2-1.4-0.5-2.7-0.5
		c-3.3,0-5.9,2-5.9,5.7c0,3.1,1.9,5.4,5.6,5.4c1.3,0,2.3-0.2,2.8-0.5L-15.9,93.1z M-10.3,87.3c2.4,0,4,1.6,4,4c0,2.9-2,4.2-4.1,4.2
		c-2.3,0-4-1.5-4-4S-12.8,87.3-10.3,87.3z M-10.4,89.1c-1.2,0-1.6,1.2-1.6,2.4c0,1.3,0.6,2.4,1.6,2.4c0.9,0,1.6-0.9,1.6-2.4
		C-8.8,90.2-9.3,89.1-10.4,89.1z M0.4,84h2.4v9c0,0.9,0,1.8,0.1,2.3H0.7l-0.1-1.2l0,0c-0.5,0.9-1.4,1.3-2.4,1.3
		c-1.9,0-3.3-1.6-3.3-4c0-2.6,1.6-4.2,3.5-4.2c1,0,1.7,0.3,2.1,0.9l0,0L0.4,84L0.4,84z M0.4,91.8v-1c0-0.1,0-0.3,0-0.4
		c-0.1-0.7-0.7-1.2-1.4-1.2c-1.1,0-1.7,1-1.7,2.2c0,1.3,0.7,2.2,1.7,2.2c0.7,0,1.3-0.5,1.4-1.2C0.3,92.2,0.4,92,0.4,91.8z M7.2,95.3
		v-7.8H4.7v7.8H7.2z M6,84.1c-0.8,0-1.3,0.5-1.3,1.2s0.5,1.2,1.3,1.2s1.3-0.5,1.3-1.2C7.2,84.6,6.7,84.1,6,84.1z M9.1,95.3h2.4v-4.5
		c0-0.2,0-0.5,0.1-0.6c0.2-0.4,0.6-0.9,1.2-0.9c0.9,0,1.2,0.7,1.2,1.7v4.3h2.4v-4.6c0-2.3-1.2-3.4-2.8-3.4c-1.3,0-2.1,0.8-2.4,1.2
		l0,0l-0.1-1.1h-2c0,0.7,0.1,1.5,0.1,2.5v5.4H9.1z M23.9,87.5H26c0,0.5-0.1,1.2-0.1,2.3v4.4c0,1.5-0.3,2.7-1.2,3.5
		c-0.9,0.7-2,1-3.2,1c-1,0-2.1-0.2-2.8-0.6l0.5-1.8c0.5,0.3,1.4,0.6,2.3,0.6c1.2,0,2-0.6,2-2.1v-0.5l0,0c-0.5,0.7-1.2,1-2.1,1
		c-1.9,0-3.3-1.6-3.3-3.8c0-2.5,1.6-4.1,3.6-4.1c1.1,0,1.7,0.5,2.1,1.1l0,0L23.9,87.5z M23.5,91.8v-1.2c0-0.2,0-0.3,0-0.4
		c-0.2-0.6-0.6-1.1-1.3-1.1c-0.9,0-1.6,0.8-1.6,2.2c0,1.2,0.6,2.1,1.6,2.1c0.6,0,1.1-0.4,1.3-1C23.5,92.3,23.5,92,23.5,91.8z
		 M31.2,95.3V84.7c0.8-0.1,1.8-0.2,3.3-0.2s2.6,0.3,3.3,0.9c0.7,0.5,1.2,1.4,1.2,2.5s-0.4,2-1,2.6c-0.8,0.8-2.1,1.1-3.5,1.1
		c-0.3,0-0.6,0-0.8,0v3.9h-2.5V95.3z M33.6,86.4v3.2c0.2,0,0.5,0.1,0.8,0.1c1.3,0,2.1-0.7,2.1-1.8c0-1-0.7-1.6-1.9-1.6
		C34.1,86.3,33.8,86.4,33.6,86.4z M47,95.3h-2.2l-0.1-0.8l0,0c-0.5,0.6-1.3,1-2.2,1c-1.6,0-2.5-1.2-2.5-2.4c0-2,1.8-3,4.6-3V90
		c0-0.4-0.2-1-1.4-1c-0.8,0-1.6,0.3-2.2,0.6L40.4,88c0.5-0.3,1.6-0.7,3-0.7c2.6,0,3.4,1.5,3.4,3.4v2.7C46.9,94.2,47,94.9,47,95.3z
		 M44.6,92.5v-0.8c-1.3,0-2.3,0.3-2.3,1.2c0,0.6,0.4,0.9,1,0.9s1.1-0.4,1.3-0.9C44.5,92.8,44.6,92.6,44.6,92.5z M54.2,87.5h2.1
		c0,0.5-0.1,1.2-0.1,2.3v4.4c0,1.5-0.3,2.7-1.2,3.5c-0.9,0.7-2,1-3.2,1c-1,0-2.1-0.2-2.8-0.6l0.5-1.8c0.5,0.3,1.4,0.6,2.3,0.6
		c1.2,0,2-0.6,2-2.1v-0.5l0,0c-0.5,0.7-1.2,1-2.1,1c-1.9,0-3.3-1.6-3.3-3.8c0-2.5,1.6-4.1,3.6-4.1c1.1,0,1.7,0.5,2.1,1.1l0,0
		L54.2,87.5z M53.8,91.8v-1.2c0-0.2,0-0.3,0-0.4c-0.2-0.6-0.6-1.1-1.3-1.1c-0.9,0-1.6,0.8-1.6,2.2c0,1.2,0.6,2.1,1.6,2.1
		c0.6,0,1.1-0.4,1.3-1C53.8,92.3,53.8,92,53.8,91.8z M65.1,92.2h-5c0.1,1,1.1,1.5,2.2,1.5c0.8,0,1.5-0.1,2.2-0.3l0.3,1.6
		C64,95.3,63,95.5,62,95.5c-2.7,0-4.2-1.5-4.2-4c0-2,1.2-4.2,4-4.2c2.5,0,3.5,2,3.5,3.9C65.2,91.6,65.1,92,65.1,92.2z M60.1,90.5H63
		c0-0.6-0.3-1.6-1.4-1.6C60.5,88.9,60.1,89.9,60.1,90.5z M66.2,94.9c0.6,0.3,1.5,0.5,2.5,0.5c2.2,0,3.4-1.1,3.4-2.5
		c0-1.2-0.6-1.9-2.1-2.4c-1-0.3-1.3-0.5-1.3-0.9S69,89,69.6,89c0.7,0,1.3,0.3,1.7,0.4l0.4-1.7c-0.5-0.2-1.3-0.4-2.2-0.4
		c-1.9,0-3.2,1.1-3.2,2.6c0,0.9,0.6,1.8,2.2,2.4c0.9,0.3,1.2,0.5,1.2,0.9s-0.3,0.7-1,0.7s-1.6-0.3-2.1-0.6L66.2,94.9z"/>
	<path class="st0" d="M64.2,14.7c-2.5,0-4.8,1.6-6,4C54,9.5,45.1,1,34.2-2.5c-5.9-2.4-10-6.9-10.5-12.1C23.2-9.4,19-4.9,13.1-2.5
		C2.2,1-6.6,9.5-10.8,18.7c-1.2-2.4-3.5-4-6-4c-3.9,0-7.1,3.8-7.1,8.5s3.2,8.5,7.1,8.5c1.2,0,2.3-0.4,3.3-1
		C-13.2,46,3.3,55.9,23.7,55.9S60.6,46,61,30.7c1,0.6,2.1,1,3.3,1c3.9,0,7.1-3.8,7.1-8.5C71.3,18.5,68.1,14.7,64.2,14.7z
		 M-13.7,25.9c-0.3,1.2-1.8,1.7-3.3,1.2c-1.5-0.6-2.4-2-2.1-3.3c0.3-1.2,1.8-1.7,3.3-1.2C-14.3,23.2-13.3,24.6-13.7,25.9z
		 M23.7,51.7C7.3,51.7-5.9,44-5.9,32.9c0-0.2,0-0.5,0-0.7c0-0.1,0-0.2,0-0.2c0-0.2,0-0.3,0-0.5s0-0.4,0.1-0.6c0,0,0,0,0-0.1
		c0.3-2.2,1.2-5.5,2.4-7.4C-0.3,19,5.1,16,11.3,16c4.8,0,9.1,1.8,12.3,4.6c3.1-2.8,7.5-4.6,12.3-4.6c6.2,0,11.7,2.9,14.7,7.4
		c1.3,1.9,2.1,5.2,2.4,7.4c0,0,0,0,0,0.1c0,0.2,0.1,0.4,0.1,0.6s0,0.3,0,0.5c0,0.1,0,0.2,0,0.2c0,0.2,0,0.5,0,0.7
		C53.3,44,40,51.7,23.7,51.7z M64.3,27c-1.5,0.6-3,0.1-3.3-1.2c-0.3-1.2,0.6-2.7,2.1-3.3c1.5-0.6,3-0.1,3.3,1.2
		C66.7,25,65.8,26.5,64.3,27z M5.2,28.5c-0.9,0-1.6-0.8-1.6-1.9s0.7-1.9,1.6-1.9s1.6,0.8,1.6,1.9S6,28.5,5.2,28.5z M42.2,28.6
		c-0.9,0-1.6-0.8-1.6-1.9c0-1,0.7-1.9,1.6-1.9c0.9,0,1.6,0.8,1.6,1.9C43.7,27.7,43,28.6,42.2,28.6z"/>
</g>
<g>
	<title>资源 7</title>
	<g id="图层_2_1_">
		<g id="图层_1-2_1_">
			<rect x="237.1" y="6.5" class="st0" width="62.9" height="22"/>
			<rect x="305.2" y="6.5" class="st0" width="30.7" height="22"/>
			<rect x="237.1" y="33.7" class="st0" width="16.9" height="54.9"/>
			<rect x="259.2" y="33.7" class="st0" width="53.4" height="14.8"/>
			<rect x="317.8" y="33.7" class="st0" width="18.1" height="54.9"/>
			<rect x="259.2" y="53.7" class="st0" width="53.4" height="14.8"/>
			<rect x="259.2" y="73.8" class="st0" width="53.4" height="14.8"/>
			<rect x="237.1" y="93.8" class="st0" width="98.8" height="19.2"/>
		</g>
	</g>
</g>
<g>
	<path class="st0" d="M166.7,2.4l-31.1,18l-0.1,35.9l31.1,17.9l31.1-18l0.1-35.9L166.7,2.4z M181.1,53.7l-2.9,1.7l-2.9-1.7V41.3
		h-17.5v12.4l-2.9,1.7l-2.9-1.7V22.9l2.9-1.6l2.9,1.7v12.4h17.5V22.9l2.9-1.6l2.9,1.7V53.7z"/>
</g>
<rect x="128.7" y="81.1" class="st1" width="117.5" height="38.5"/>
<g class="st2">
	<path class="st0" d="M129.9,83.8c0.7-0.1,1.6-0.2,2.7-0.2c1.4,0,2.4,0.3,3,0.9c0.6,0.5,0.9,1.3,0.9,2.3c0,1-0.3,1.7-0.8,2.3
		c-0.7,0.8-1.9,1.2-3.3,1.2c-0.4,0-0.8,0-1.1-0.1v4.3h-1.4V83.8z M131.3,89c0.3,0.1,0.7,0.1,1.2,0.1c1.7,0,2.7-0.8,2.7-2.3
		c0-1.4-1-2.1-2.5-2.1c-0.6,0-1.1,0-1.3,0.1V89z"/>
	<path class="st0" d="M145,90.5c0,2.9-2,4.1-3.9,4.1c-2.1,0-3.7-1.5-3.7-4c0-2.6,1.7-4.1,3.8-4.1C143.5,86.5,145,88.2,145,90.5z
		 M138.9,90.6c0,1.7,1,3,2.4,3c1.3,0,2.4-1.3,2.4-3c0-1.3-0.7-3-2.3-3C139.6,87.6,138.9,89.1,138.9,90.6z"/>
	<path class="st0" d="M147.2,86.7l1,3.9c0.2,0.9,0.4,1.7,0.6,2.5h0c0.2-0.8,0.4-1.6,0.7-2.4l1.3-4h1.2l1.2,3.9
		c0.3,0.9,0.5,1.7,0.7,2.5h0c0.1-0.8,0.3-1.6,0.6-2.5l1.1-3.9h1.4l-2.5,7.7h-1.3l-1.2-3.7c-0.3-0.9-0.5-1.6-0.7-2.5h0
		c-0.2,0.9-0.4,1.7-0.7,2.6l-1.2,3.7h-1.3l-2.3-7.7H147.2z"/>
	<path class="st0" d="M159.1,90.8c0,1.9,1.2,2.7,2.7,2.7c1,0,1.6-0.2,2.1-0.4l0.2,1c-0.5,0.2-1.3,0.5-2.6,0.5
		c-2.4,0-3.8-1.6-3.8-3.9s1.4-4.2,3.6-4.2c2.5,0,3.2,2.2,3.2,3.6c0,0.3,0,0.5,0,0.7H159.1z M163.2,89.8c0-0.9-0.4-2.3-2-2.3
		c-1.4,0-2,1.3-2.2,2.3H163.2z"/>
	<path class="st0" d="M166.3,89.1c0-0.9,0-1.7-0.1-2.4h1.2l0,1.5h0.1c0.4-1,1.2-1.7,2.1-1.7c0.2,0,0.3,0,0.4,0v1.3
		c-0.1,0-0.3,0-0.5,0c-1,0-1.7,0.8-1.9,1.8c0,0.2-0.1,0.4-0.1,0.7v4.1h-1.4V89.1z"/>
	<path class="st0" d="M172.2,90.8c0,1.9,1.2,2.7,2.7,2.7c1,0,1.6-0.2,2.1-0.4l0.2,1c-0.5,0.2-1.3,0.5-2.6,0.5
		c-2.4,0-3.8-1.6-3.8-3.9s1.4-4.2,3.6-4.2c2.5,0,3.2,2.2,3.2,3.6c0,0.3,0,0.5,0,0.7H172.2z M176.3,89.8c0-0.9-0.4-2.3-2-2.3
		c-1.4,0-2,1.3-2.2,2.3H176.3z"/>
	<path class="st0" d="M186.1,83.1v9.4c0,0.7,0,1.5,0.1,2h-1.3l-0.1-1.3h0c-0.4,0.9-1.4,1.5-2.6,1.5c-1.9,0-3.3-1.6-3.3-3.9
		c0-2.6,1.6-4.2,3.5-4.2c1.2,0,2,0.6,2.3,1.2h0v-4.6H186.1z M184.7,89.9c0-0.2,0-0.4-0.1-0.6c-0.2-0.9-1-1.6-2-1.6
		c-1.5,0-2.3,1.3-2.3,3c0,1.6,0.8,2.9,2.3,2.9c0.9,0,1.8-0.6,2.1-1.7c0-0.2,0.1-0.4,0.1-0.6V89.9z"/>
	<path class="st0" d="M191.8,94.5c0-0.5,0.1-1.3,0.1-2v-9.4h1.4V88h0c0.5-0.9,1.4-1.4,2.6-1.4c1.9,0,3.3,1.6,3.3,4
		c0,2.8-1.7,4.1-3.5,4.1c-1.1,0-2-0.4-2.6-1.5h0l-0.1,1.3H191.8z M193.2,91.4c0,0.2,0,0.4,0.1,0.5c0.3,1,1.1,1.6,2.1,1.6
		c1.5,0,2.4-1.2,2.4-3c0-1.6-0.8-2.9-2.3-2.9c-1,0-1.9,0.7-2.1,1.7c0,0.2-0.1,0.4-0.1,0.6V91.4z"/>
	<path class="st0" d="M201.3,86.7l1.7,4.6c0.2,0.5,0.4,1.1,0.5,1.6h0c0.1-0.5,0.3-1.1,0.5-1.6l1.5-4.5h1.5l-2.1,5.5
		c-1,2.7-1.7,4-2.7,4.8c-0.7,0.6-1.4,0.8-1.7,0.9l-0.4-1.2c0.4-0.1,0.8-0.3,1.2-0.7c0.4-0.3,0.9-0.8,1.2-1.6
		c0.1-0.1,0.1-0.3,0.1-0.3s0-0.2-0.1-0.4l-2.9-7.1H201.3z"/>
</g>
<rect x="146.5" y="98.5" class="st1" width="112.5" height="17.5"/>
<g class="st2">
	<path class="st0" d="M148.5,100.5h2.4v4.5h0c0.3-0.3,0.6-0.6,1-0.8c0.4-0.2,0.8-0.3,1.3-0.3c1.6,0,2.7,1.1,2.7,3.4v4.6h-2.4v-4.3
		c0-1-0.4-1.7-1.3-1.7c-0.6,0-1,0.4-1.2,0.8c-0.1,0.2-0.1,0.4-0.1,0.5v4.6h-2.4V100.5z"/>
	<path class="st0" d="M159.7,108.8c0.1,1,1.1,1.5,2.2,1.5c0.8,0,1.5-0.1,2.2-0.3l0.3,1.6c-0.8,0.3-1.8,0.5-2.8,0.5
		c-2.7,0-4.2-1.5-4.2-4c0-2,1.2-4.2,4-4.2c2.5,0,3.5,2,3.5,3.9c0,0.4,0,0.8-0.1,1H159.7z M162.6,107.1c0-0.6-0.3-1.6-1.4-1.6
		c-1,0-1.4,0.9-1.5,1.6H162.6z"/>
	<path class="st0" d="M168,104.1l0.8,1.3c0.2,0.4,0.4,0.8,0.6,1.2h0c0.2-0.4,0.4-0.8,0.6-1.2l0.7-1.3h2.6l-2.6,3.7l2.6,4.1h-2.8
		l-0.8-1.4c-0.2-0.4-0.4-0.8-0.6-1.2h0c-0.2,0.4-0.4,0.8-0.6,1.2l-0.7,1.4h-2.7l2.7-4l-2.6-3.8H168z"/>
	<path class="st0" d="M181.8,107.9c0,2.9-2,4.2-4.1,4.2c-2.3,0-4-1.5-4-4s1.7-4.1,4.2-4.1C180.2,103.9,181.8,105.5,181.8,107.9z
		 M176.1,108c0,1.3,0.6,2.4,1.6,2.4c0.9,0,1.6-0.9,1.6-2.4c0-1.2-0.4-2.4-1.6-2.4C176.6,105.6,176.1,106.8,176.1,108z"/>
</g>
</svg>
